<?xml version="1.0" encoding="utf-8"?>
<!-- Generator: Adobe Illustrator 16.0.3, SVG Export Plug-In . SVG Version: 6.00 Build 0)  -->
<!DOCTYPE svg PUBLIC "-//W3C//DTD SVG 1.1//EN" "http://www.w3.org/Graphics/SVG/1.1/DTD/svg11.dtd">
<svg version="1.1" id="Capa_1" xmlns="http://www.w3.org/2000/svg" xmlns:xlink="http://www.w3.org/1999/xlink" x="0px" y="0px"
	 width="194px" height="24px" viewBox="0 0 194 24" enable-background="new 0 0 194 24" xml:space="preserve">
<g>
	<linearGradient id="SVGID_1_" gradientUnits="userSpaceOnUse" x1="5.7007" y1="8.7285" x2="26.2106" y2="15.9627">
		<stop  offset="0" style="stop-color:#6E0D66"/>
		<stop  offset="0.5463" style="stop-color:#F37059"/>
		<stop  offset="1" style="stop-color:#FFCD11"/>
	</linearGradient>
	<path fill="url(#SVGID_1_)" d="M1.77,12.694C4.201,11.93,6.576,10.918,8.862,9.8c1.807-0.883,3.567-1.872,5.218-3.023
		c1.62-1.131,3.178-2.438,4.367-4.026c0.251-0.335,0.3-0.792,0.244-1.195c-0.031-0.22-0.096-0.462-0.244-0.633
		c-0.084-0.1-0.276-0.214-0.407-0.107c-3.772,3.086-6.297,7.325-7.753,11.935c-0.849,2.682-1.38,5.521-1.466,8.335
		c-0.002,0.075-0.004,0.148-0.004,0.224c0,0.306,0.055,0.672,0.262,0.913c0.241,0.283,0.492,0.082,0.642-0.165
		c1.645-2.71,3.682-5.177,5.743-7.585c1.548-1.809,3.16-3.594,5.183-4.836c0.986-0.604,2.042-1.042,3.193-1.097
		c0.55-0.026,1.111,0.048,1.617,0.218c0.27,0.092,0.531,0.211,0.782,0.349c0.109,0.062,0.214,0.132,0.318,0.206
		c0.05,0.036,0.098,0.074,0.146,0.112c-0.094-0.074,0.085,0.08,0.101,0.096c0.175,0.166,0.326,0.354,0.462,0.551
		c-0.11-0.155,0.004,0.01,0.02,0.038c0.033,0.051,0.062,0.104,0.091,0.157c0.068,0.125,0.127,0.254,0.183,0.384
		c0.083,0.197-0.066-0.186,0.005,0.015c0.021,0.058,0.04,0.117,0.06,0.176c0.037,0.119,0.071,0.239,0.103,0.361
		c0.015,0.057,0.062,0.277,0.002-0.006c0.014,0.062,0.026,0.125,0.037,0.187c0.025,0.148,0.046,0.297,0.063,0.447
		c0.009,0.084,0.042,0.531,0.018,0.172c0.009,0.13,0.015,0.263,0.016,0.394c0.005,0.284-0.005,0.57-0.022,0.854
		c0.022-0.357-0.012,0.09-0.021,0.174c-0.011,0.129-0.027,0.257-0.044,0.385c-0.034,0.27-0.079,0.538-0.13,0.805
		c-0.011,0.06-0.022,0.119-0.035,0.18c0.06-0.293,0.016-0.081,0.002-0.021c-0.025,0.113-0.052,0.226-0.079,0.338
		c-0.065,0.265-0.141,0.526-0.225,0.785c-0.043,0.132-0.09,0.263-0.139,0.393c-0.081,0.222,0.072-0.173-0.017,0.047
		c-0.027,0.064-0.054,0.132-0.082,0.196c-0.121,0.287-0.257,0.565-0.401,0.841c-0.068,0.13-0.139,0.256-0.213,0.382
		c-0.035,0.063-0.074,0.124-0.111,0.188c-0.005,0.007-0.134,0.209-0.049,0.08c-0.173,0.265-0.36,0.519-0.557,0.767
		c-0.361,0.451-0.793,0.885-1.203,1.2c-0.944,0.727-2.038,1.14-3.229,1.129c-0.519-0.004-0.914-0.136-1.359-0.432
		c-0.2-0.131-0.242-0.177-0.441-0.398c-0.077-0.088-0.149-0.183-0.219-0.279c-0.115-0.163,0.084,0.137-0.021-0.033
		c-0.043-0.067-0.08-0.141-0.119-0.21c-0.057-0.105-0.106-0.216-0.154-0.327c-0.083-0.193,0.067,0.188-0.005-0.013
		c-0.02-0.058-0.04-0.116-0.058-0.175c-0.037-0.115-0.065-0.231-0.092-0.352c0.065,0.286,0.017,0.074,0.008,0.012
		c-0.014-0.078-0.024-0.16-0.033-0.24c-0.009-0.073-0.022-0.297-0.002,0.04c-0.002-0.06-0.004-0.121-0.005-0.181
		c-0.002-0.091,0.022-0.512-0.006-0.137c0.009-0.116,0.027-0.232,0.045-0.348c0.036-0.21-0.054,0.231-0.006,0.026
		c0.017-0.074,0.038-0.148,0.06-0.22c0.019-0.061,0.04-0.121,0.061-0.18c-0.067,0.191,0.021-0.044,0.032-0.069
		c0.059-0.14,0.127-0.275,0.199-0.407c0.144-0.266,0.245-0.403,0.489-0.69c0.395-0.466,0.818-0.791,1.363-1.094
		c0.526-0.294,1.098-0.488,1.689-0.584c0.148-0.024,0.301-0.04,0.449-0.052c0.077-0.006,0.149-0.01,0.229-0.012
		c0.182-0.007-0.082-0.121,0.046-0.004c0.095,0.087,0.182,0.183,0.264,0.281c0.023,0.029,0.137,0.19,0.023,0.018
		c0.035,0.057,0.067,0.116,0.095,0.179c0.079,0.161-0.066-0.206-0.017-0.041c0.053,0.173-0.043-0.257-0.018-0.083
		c0.029,0.18-0.006-0.295-0.008-0.116c0.002-0.349,0.02-0.217,0.003-0.121c0.048-0.316,0.04-0.18,0.016-0.097
		c-0.047,0.154,0.088-0.213,0.023-0.064c-0.014,0.037-0.037,0.072-0.056,0.108c-0.063,0.115,0.114-0.159-0.006,0.009
		c-0.1,0.142-0.223,0.266-0.35,0.382c-0.115,0.104,0.11-0.09-0.009,0.007c-0.034,0.029-0.07,0.055-0.104,0.081
		c-0.079,0.062-0.165,0.119-0.25,0.175c-0.331,0.219-0.692,0.409-1.064,0.551c-0.17,0.066-0.273,0.335-0.319,0.486
		c-0.076,0.263-0.089,0.549-0.051,0.816c0.042,0.314,0.224,0.902,0.652,0.74c0.438-0.168,0.86-0.402,1.243-0.674
		c0.323-0.231,0.642-0.504,0.858-0.839c0.394-0.606,0.504-1.248,0.45-1.966c-0.046-0.606-0.365-1.189-0.789-1.613
		c-0.123-0.12-0.3-0.338-0.48-0.335c-0.152,0.002-0.304,0.009-0.457,0.021c-0.325,0.026-0.646,0.088-0.961,0.169
		c-1.261,0.328-2.388,1.041-3.187,2.075c-1.562,2.015-1.687,5.222,0.016,7.206c0.764,0.894,1.849,1.211,2.997,1.088
		c1.259-0.137,2.358-0.737,3.306-1.549c1.884-1.611,2.906-4.039,3.38-6.416c0.457-2.298,0.496-5.044-0.89-7.044
		c-0.673-0.969-1.78-1.502-2.915-1.707c-1.153-0.208-2.347,0.072-3.404,0.537c-1.16,0.508-2.181,1.283-3.136,2.104
		c-0.926,0.797-1.771,1.683-2.583,2.593c-2.463,2.766-4.837,5.668-6.759,8.839c0.302,0.249,0.603,0.5,0.905,0.749
		c0-0.159,0.006-0.315,0.014-0.472c0.004-0.083,0.008-0.163,0.013-0.245c0.002-0.047,0.005-0.093,0.008-0.139
		c0.012-0.186-0.025,0.357-0.005,0.077c0.019-0.253,0.042-0.503,0.067-0.755c0.067-0.665,0.16-1.33,0.27-1.991
		c0.067-0.397,0.143-0.795,0.225-1.193c0.041-0.193-0.052,0.246-0.01,0.051c0.01-0.05,0.022-0.102,0.033-0.151
		c0.023-0.104,0.047-0.208,0.069-0.311c0.054-0.23,0.11-0.46,0.167-0.688c0.242-0.959,0.533-1.906,0.868-2.837
		c0.043-0.118,0.087-0.236,0.131-0.354c0.023-0.06,0.044-0.119,0.068-0.178c-0.086,0.224-0.006,0.017,0.01-0.025
		c0.103-0.26,0.21-0.521,0.322-0.779c0.219-0.512,0.457-1.018,0.708-1.515c0.26-0.515,0.54-1.019,0.835-1.514
		c0.072-0.122,0.147-0.242,0.221-0.362c0.037-0.061,0.075-0.121,0.113-0.181c0.006-0.01,0.134-0.207,0.046-0.074
		c0.17-0.261,0.347-0.518,0.527-0.772c0.721-1.014,1.531-1.965,2.415-2.842c0.424-0.42,0.882-0.834,1.329-1.2
		c-0.135-0.646-0.271-1.291-0.407-1.935c-0.62,0.828-1.343,1.571-2.115,2.256c-0.358,0.317-0.747,0.63-1.191,0.967
		c-0.443,0.337-0.9,0.658-1.363,0.967C11.43,6.324,9.493,7.349,7.516,8.265c-1.956,0.905-3.97,1.74-6.028,2.388
		c-0.17,0.054-0.275,0.345-0.317,0.487c-0.076,0.261-0.09,0.545-0.053,0.815C1.164,12.293,1.333,12.831,1.77,12.694L1.77,12.694z"/>
</g>
<g>
	<rect x="32.625" y="9" fill="none" width="134.875" height="18.5"/>
	<path fill="#333333" d="M42.033,8.328V18.8h-1.932l-3.164-6.972V18.8h-1.344V9.308c-0.429,0.206-0.761,0.495-0.994,0.868
		c-0.233,0.374-0.35,0.84-0.35,1.4c0,0.299,0.019,0.544,0.056,0.735c0.037,0.191,0.082,0.348,0.133,0.469
		c0.051,0.122,0.105,0.222,0.161,0.3c0.056,0.08,0.107,0.152,0.154,0.218c-0.616,0-1.078-0.142-1.386-0.427
		c-0.308-0.284-0.462-0.763-0.462-1.435c0-0.383,0.075-0.761,0.224-1.134c0.149-0.373,0.371-0.709,0.665-1.008
		s0.665-0.539,1.113-0.721c0.448-0.182,0.97-0.273,1.568-0.273c0.112,0,0.256,0.009,0.434,0.028
		c0.177,0.019,0.373,0.075,0.588,0.168l3.262,7.42V8.328H42.033z"/>
	<path fill="#333333" d="M43.181,9.938c0-0.308,0.107-0.572,0.322-0.791c0.214-0.219,0.476-0.329,0.784-0.329
		s0.572,0.11,0.791,0.329s0.329,0.483,0.329,0.791c0,0.308-0.11,0.569-0.329,0.784c-0.219,0.215-0.483,0.322-0.791,0.322
		s-0.569-0.107-0.784-0.322C43.288,10.507,43.181,10.246,43.181,9.938z M45.351,11.8v4.76c0,0.392,0.054,0.651,0.161,0.777
		s0.296,0.188,0.567,0.188s0.497-0.116,0.679-0.35s0.287-0.527,0.315-0.882h0.588c-0.075,0.569-0.205,1.024-0.392,1.364
		c-0.187,0.342-0.396,0.603-0.63,0.785c-0.233,0.182-0.471,0.301-0.714,0.356s-0.458,0.084-0.644,0.084
		c-0.719,0-1.223-0.198-1.512-0.595c-0.289-0.396-0.434-0.922-0.434-1.575V11.8H45.351z"/>
	<path fill="#333333" d="M49.088,11.8v0.868c0.206-0.243,0.434-0.46,0.686-0.651c0.252-0.191,0.527-0.287,0.826-0.287
		c0.177,0,0.338,0.037,0.483,0.112s0.271,0.173,0.378,0.294c0.107,0.122,0.191,0.254,0.252,0.399
		c0.061,0.145,0.091,0.292,0.091,0.441c0,0.206-0.063,0.395-0.189,0.567s-0.334,0.259-0.623,0.259c-0.215,0-0.364-0.046-0.448-0.14
		s-0.149-0.193-0.196-0.301c-0.047-0.107-0.096-0.208-0.147-0.302c-0.052-0.093-0.143-0.14-0.273-0.14
		c-0.14,0-0.278,0.054-0.413,0.16c-0.135,0.107-0.278,0.241-0.427,0.4V18.8h-2.016v-7H49.088z"/>
	<path fill="#333333" d="M56.004,11.52c0.476,0,0.819,0.233,1.029,0.7c0.21,0.467,0.315,1.11,0.315,1.933
		c0,0.531-0.047,1.078-0.14,1.638s-0.252,1.068-0.476,1.526c-0.224,0.457-0.521,0.832-0.889,1.127
		c-0.369,0.293-0.829,0.44-1.379,0.44c-0.672,0-1.195-0.21-1.568-0.63c-0.373-0.42-0.56-0.984-0.56-1.694V11.8h2.016v4.76
		c0,0.337,0.047,0.581,0.14,0.735s0.247,0.23,0.462,0.23c0.271,0,0.504-0.107,0.7-0.322c0.196-0.214,0.357-0.489,0.483-0.825
		s0.219-0.71,0.28-1.12c0.061-0.41,0.091-0.813,0.091-1.204c0-0.429-0.038-0.831-0.112-1.204c-0.019,0.047-0.079,0.082-0.182,0.105
		c-0.103,0.023-0.182,0.035-0.238,0.035c-0.103,0-0.194-0.028-0.273-0.084s-0.149-0.128-0.21-0.217s-0.107-0.185-0.14-0.287
		s-0.049-0.201-0.049-0.294c0-0.168,0.058-0.308,0.175-0.42C55.596,11.576,55.771,11.52,56.004,11.52z"/>
	<path fill="#333333" d="M63.9,11.8v4.76c0,0.392,0.054,0.651,0.161,0.777s0.296,0.188,0.567,0.188c0.271,0,0.497-0.116,0.679-0.35
		s0.287-0.527,0.315-0.882h0.588c-0.075,0.569-0.205,1.024-0.392,1.364c-0.187,0.342-0.397,0.603-0.63,0.785
		c-0.233,0.182-0.471,0.301-0.714,0.356s-0.458,0.084-0.644,0.084c-0.495,0-0.871-0.114-1.127-0.343
		c-0.257-0.229-0.437-0.544-0.539-0.945c-0.075,0.158-0.164,0.314-0.266,0.469s-0.226,0.292-0.371,0.414
		c-0.145,0.121-0.313,0.219-0.504,0.293s-0.413,0.112-0.665,0.112c-0.299,0-0.593-0.056-0.882-0.168
		c-0.29-0.112-0.553-0.294-0.791-0.546c-0.238-0.252-0.429-0.586-0.574-1.001c-0.145-0.415-0.217-0.927-0.217-1.533
		c0-0.429,0.049-0.872,0.147-1.33c0.098-0.457,0.252-0.877,0.462-1.26s0.485-0.698,0.826-0.945c0.341-0.247,0.753-0.371,1.239-0.371
		c0.112,0,0.233,0.007,0.364,0.021c0.13,0.014,0.256,0.047,0.378,0.098c0.121,0.052,0.233,0.126,0.336,0.224
		s0.182,0.231,0.238,0.399V11.8H63.9z M61.884,13.145c-0.01-0.038-0.028-0.087-0.056-0.148c-0.028-0.061-0.07-0.121-0.126-0.182
		s-0.126-0.112-0.21-0.154s-0.182-0.063-0.294-0.063c-0.224,0-0.418,0.096-0.581,0.287c-0.164,0.191-0.294,0.43-0.392,0.714
		c-0.098,0.285-0.17,0.598-0.217,0.938c-0.047,0.34-0.07,0.664-0.07,0.973c0,0.494,0.037,0.88,0.112,1.155
		c0.074,0.275,0.166,0.476,0.273,0.602c0.107,0.126,0.222,0.201,0.343,0.224c0.121,0.023,0.224,0.035,0.308,0.035
		c0.103,0,0.208-0.025,0.315-0.076c0.107-0.052,0.205-0.129,0.294-0.231s0.161-0.231,0.217-0.385
		c0.056-0.154,0.084-0.334,0.084-0.539V13.145z"/>
	<path fill="#333333" d="M69.066,14.572c0-0.561-0.063-0.959-0.189-1.197s-0.306-0.357-0.539-0.357c-0.14,0-0.259,0.037-0.357,0.112
		s-0.18,0.173-0.245,0.294s-0.117,0.259-0.154,0.413c-0.038,0.153-0.061,0.31-0.07,0.469V18.8h-2.016v-7h2.016l0.005,0.728
		c0.214-0.327,0.456-0.539,0.726-0.637c0.27-0.098,0.525-0.147,0.767-0.147c0.263,0,0.515,0.042,0.754,0.126
		s0.451,0.227,0.635,0.427c0.183,0.201,0.326,0.467,0.43,0.798s0.155,0.739,0.155,1.226c0,0.121-0.002,0.272-0.007,0.455
		c-0.005,0.182-0.012,0.365-0.021,0.553c-0.01,0.187-0.017,0.369-0.021,0.546c-0.005,0.177-0.007,0.327-0.007,0.448
		c0,0.4,0.042,0.702,0.126,0.902c0.084,0.201,0.271,0.301,0.56,0.301c0.317,0,0.539-0.116,0.665-0.35s0.226-0.527,0.301-0.882h0.588
		c-0.075,0.56-0.187,1.011-0.336,1.351c-0.149,0.342-0.317,0.602-0.504,0.784c-0.187,0.183-0.388,0.304-0.602,0.364
		c-0.215,0.061-0.425,0.091-0.63,0.091c-0.723,0-1.247-0.237-1.571-0.714s-0.486-1.111-0.486-1.904c0-0.084,0.002-0.203,0.007-0.357
		c0.004-0.153,0.007-0.314,0.007-0.482s0.002-0.329,0.007-0.482C69.063,14.789,69.066,14.665,69.066,14.572z"/>
	<path fill="#333333" d="M78.333,11.8v4.76c0,0.392,0.054,0.651,0.161,0.777s0.296,0.188,0.567,0.188
		c0.112,0,0.206-0.018,0.28-0.056c-0.084,0.522-0.203,0.89-0.357,1.099c-0.154,0.211-0.427,0.315-0.819,0.315
		c-0.467,0-0.821-0.116-1.064-0.351c-0.243-0.232-0.411-0.545-0.504-0.938c-0.075,0.158-0.164,0.314-0.266,0.469
		s-0.226,0.292-0.371,0.414c-0.145,0.121-0.313,0.219-0.504,0.293s-0.413,0.112-0.665,0.112c-0.299,0-0.593-0.056-0.882-0.168
		c-0.29-0.112-0.553-0.294-0.791-0.546c-0.238-0.252-0.429-0.586-0.574-1.001c-0.145-0.415-0.217-0.927-0.217-1.533
		c0-0.429,0.049-0.872,0.147-1.33c0.098-0.457,0.252-0.877,0.462-1.26s0.485-0.698,0.826-0.945c0.341-0.247,0.753-0.371,1.239-0.371
		c0.112,0,0.233,0.007,0.364,0.021c0.13,0.014,0.256,0.047,0.378,0.098c0.121,0.052,0.233,0.126,0.336,0.224
		s0.182,0.231,0.238,0.399V11.8H78.333z M75.632,12.598c-0.224,0-0.418,0.096-0.581,0.287c-0.164,0.191-0.294,0.43-0.392,0.714
		c-0.098,0.285-0.17,0.598-0.217,0.938c-0.047,0.34-0.07,0.664-0.07,0.973c0,0.494,0.037,0.88,0.112,1.155
		c0.074,0.275,0.166,0.476,0.273,0.602c0.107,0.126,0.222,0.201,0.343,0.224c0.121,0.023,0.224,0.035,0.308,0.035
		c0.103,0,0.208-0.025,0.315-0.076c0.107-0.052,0.205-0.129,0.294-0.231s0.161-0.229,0.217-0.378
		c0.056-0.149,0.084-0.326,0.084-0.532V13.13c-0.019-0.037-0.042-0.087-0.07-0.147c-0.028-0.061-0.07-0.119-0.126-0.175
		c-0.056-0.056-0.124-0.105-0.203-0.147C75.839,12.619,75.744,12.598,75.632,12.598z"/>
	<path fill="#333333" d="M87.873,9.616c-0.195,0.131-0.364,0.374-0.507,0.728c-0.144,0.355-0.264,0.761-0.361,1.218
		c-0.098,0.457-0.169,0.938-0.216,1.442s-0.069,0.98-0.069,1.428c0,0.672,0.049,1.219,0.147,1.639s0.219,0.746,0.364,0.979
		c0.145,0.233,0.298,0.39,0.462,0.47c0.163,0.078,0.31,0.118,0.441,0.118c0.28,0,0.525-0.128,0.735-0.385s0.387-0.6,0.532-1.029
		c0.145-0.429,0.252-0.921,0.322-1.478c0.07-0.555,0.105-1.131,0.105-1.729c0-0.849-0.068-1.54-0.203-2.072s-0.32-0.947-0.553-1.246
		c-0.233-0.298-0.506-0.499-0.819-0.602c-0.313-0.103-0.642-0.154-0.987-0.154c-0.448,0-0.873,0.068-1.274,0.203
		s-0.751,0.333-1.05,0.595c-0.299,0.262-0.535,0.583-0.707,0.966c-0.173,0.383-0.259,0.816-0.259,1.302
		c0,0.345,0.037,0.609,0.111,0.791s0.162,0.348,0.264,0.497c-0.531,0-0.948-0.119-1.251-0.357c-0.303-0.238-0.455-0.618-0.455-1.141
		c0-0.476,0.128-0.926,0.385-1.351c0.256-0.424,0.604-0.795,1.041-1.113c0.438-0.317,0.953-0.569,1.545-0.756
		c0.592-0.187,1.223-0.28,1.894-0.28C88.32,8.3,89,8.435,89.55,8.706c0.55,0.271,0.988,0.64,1.314,1.106s0.559,1.008,0.699,1.624
		c0.14,0.616,0.21,1.265,0.21,1.946c0,0.411-0.023,0.831-0.07,1.26c-0.047,0.43-0.128,0.847-0.245,1.253
		c-0.116,0.406-0.268,0.791-0.454,1.155c-0.186,0.364-0.419,0.682-0.698,0.952c-0.28,0.271-0.61,0.485-0.992,0.645
		c-0.382,0.158-0.82,0.237-1.313,0.237c-0.447,0-0.874-0.075-1.278-0.224c-0.405-0.149-0.764-0.396-1.076-0.742
		c-0.313-0.346-0.56-0.801-0.741-1.365c-0.182-0.564-0.272-1.268-0.272-2.107c0-0.504,0.039-1.045,0.119-1.624
		c0.079-0.579,0.216-1.113,0.412-1.603c0.195-0.49,0.456-0.898,0.782-1.225c0.326-0.327,0.731-0.49,1.215-0.49
		c0.103,0,0.214,0.007,0.335,0.021C87.617,9.539,87.743,9.569,87.873,9.616z"/>
	<path fill="#333333" d="M94.839,11.8v0.868c0.205-0.243,0.435-0.46,0.687-0.651c0.252-0.191,0.526-0.287,0.825-0.287
		c0.178,0,0.339,0.037,0.483,0.112s0.271,0.173,0.378,0.294c0.107,0.122,0.191,0.254,0.252,0.399
		c0.061,0.145,0.091,0.292,0.091,0.441c0,0.206-0.063,0.395-0.188,0.567s-0.334,0.259-0.623,0.259c-0.215,0-0.364-0.046-0.448-0.14
		s-0.149-0.193-0.196-0.301s-0.096-0.208-0.146-0.302c-0.052-0.093-0.143-0.14-0.273-0.14c-0.14,0-0.277,0.054-0.413,0.16
		c-0.135,0.107-0.277,0.241-0.427,0.4V18.8h-2.016v-7H94.839z"/>
	<path fill="#333333" d="M101.278,17.708c0.28,0,0.527-0.038,0.742-0.112s0.406-0.175,0.574-0.301s0.322-0.275,0.462-0.448
		s0.275-0.356,0.406-0.553h0.476c-0.131,0.327-0.287,0.644-0.469,0.952c-0.182,0.308-0.406,0.583-0.672,0.826
		c-0.267,0.242-0.576,0.438-0.931,0.588c-0.355,0.148-0.771,0.224-1.246,0.224c-0.401,0-0.771-0.062-1.106-0.183
		s-0.628-0.31-0.875-0.566c-0.247-0.256-0.438-0.588-0.574-0.994c-0.135-0.406-0.203-0.894-0.203-1.463
		c0-0.4,0.045-0.833,0.134-1.295c0.088-0.462,0.244-0.889,0.469-1.281c0.224-0.392,0.527-0.718,0.91-0.98
		c0.382-0.261,0.868-0.392,1.456-0.392c0.447,0,0.793,0.07,1.036,0.21c0.242,0.14,0.422,0.303,0.538,0.49
		c0.117,0.187,0.188,0.369,0.21,0.546c0.023,0.178,0.035,0.304,0.035,0.378c0,0.42-0.077,0.789-0.23,1.106
		c-0.154,0.317-0.359,0.585-0.616,0.805s-0.551,0.388-0.882,0.505c-0.332,0.116-0.67,0.184-1.016,0.202
		c0.01,0.626,0.114,1.071,0.315,1.337C100.422,17.574,100.774,17.708,101.278,17.708z M101.572,13.377
		c0-0.324-0.056-0.554-0.168-0.689c-0.111-0.135-0.233-0.202-0.363-0.202c-0.159,0-0.304,0.077-0.435,0.23s-0.245,0.357-0.343,0.612
		c-0.098,0.256-0.178,0.556-0.238,0.898c-0.061,0.344-0.1,0.701-0.119,1.073c0.233-0.019,0.453-0.081,0.658-0.188
		c0.205-0.105,0.383-0.246,0.532-0.418s0.266-0.369,0.35-0.592S101.572,13.638,101.572,13.377z"/>
	<path fill="#333333" d="M107.032,14.572c0-0.561-0.063-0.959-0.188-1.197s-0.306-0.357-0.539-0.357
		c-0.14,0-0.259,0.037-0.357,0.112c-0.098,0.075-0.18,0.173-0.244,0.294c-0.065,0.121-0.117,0.259-0.154,0.413
		c-0.037,0.153-0.061,0.31-0.07,0.469V18.8h-2.016v-7h2.016l0.006,0.728c0.214-0.327,0.455-0.539,0.725-0.637
		c0.271-0.098,0.525-0.147,0.768-0.147c0.264,0,0.515,0.042,0.754,0.126c0.24,0.084,0.452,0.227,0.635,0.427
		c0.184,0.201,0.327,0.467,0.431,0.798c0.103,0.331,0.155,0.739,0.155,1.226c0,0.121-0.003,0.272-0.008,0.455
		c-0.005,0.182-0.012,0.365-0.021,0.553c-0.01,0.187-0.017,0.369-0.021,0.546s-0.007,0.327-0.007,0.448
		c0,0.4,0.042,0.702,0.126,0.902c0.084,0.201,0.271,0.301,0.561,0.301c0.316,0,0.539-0.116,0.665-0.35s0.226-0.527,0.301-0.882
		h0.588c-0.075,0.56-0.187,1.011-0.336,1.351c-0.149,0.342-0.317,0.602-0.504,0.784c-0.188,0.183-0.388,0.304-0.603,0.364
		s-0.425,0.091-0.63,0.091c-0.723,0-1.247-0.237-1.571-0.714s-0.486-1.111-0.486-1.904c0-0.084,0.002-0.203,0.007-0.357
		c0.005-0.153,0.007-0.314,0.007-0.482s0.002-0.329,0.007-0.482C107.03,14.789,107.032,14.665,107.032,14.572z"/>
	<path fill="#333333" d="M116.301,9v7.56c0,0.392,0.054,0.651,0.161,0.777s0.296,0.188,0.567,0.188c0.271,0,0.497-0.116,0.679-0.35
		s0.287-0.527,0.315-0.882h0.588c-0.075,0.569-0.206,1.024-0.393,1.364c-0.187,0.342-0.396,0.603-0.63,0.785
		c-0.233,0.182-0.472,0.301-0.714,0.356c-0.243,0.056-0.457,0.084-0.644,0.084c-0.495,0-0.871-0.114-1.128-0.343
		c-0.256-0.229-0.436-0.544-0.538-0.945c-0.075,0.158-0.164,0.314-0.267,0.469s-0.227,0.292-0.371,0.414
		c-0.145,0.121-0.313,0.219-0.504,0.293s-0.413,0.112-0.665,0.112c-0.299,0-0.593-0.056-0.882-0.168s-0.553-0.294-0.791-0.546
		s-0.43-0.586-0.574-1.001s-0.217-0.927-0.217-1.533c0-0.429,0.049-0.872,0.147-1.33c0.098-0.457,0.252-0.877,0.462-1.26
		s0.485-0.698,0.826-0.945c0.34-0.247,0.753-0.371,1.238-0.371c0.112,0,0.233,0.007,0.364,0.021
		c0.131,0.014,0.257,0.047,0.378,0.098c0.121,0.052,0.233,0.126,0.336,0.224s0.182,0.231,0.238,0.399V9.28L116.301,9z
		 M114.285,13.145c-0.01-0.038-0.028-0.087-0.057-0.148c-0.027-0.061-0.069-0.121-0.126-0.182c-0.056-0.061-0.126-0.112-0.21-0.154
		s-0.182-0.063-0.294-0.063c-0.224,0-0.417,0.096-0.581,0.287c-0.163,0.191-0.294,0.43-0.392,0.714
		c-0.098,0.285-0.17,0.598-0.217,0.938c-0.047,0.34-0.07,0.664-0.07,0.973c0,0.494,0.037,0.88,0.112,1.155
		c0.074,0.275,0.165,0.476,0.272,0.602s0.222,0.201,0.344,0.224c0.121,0.023,0.224,0.035,0.308,0.035
		c0.103,0,0.208-0.025,0.315-0.076c0.106-0.052,0.205-0.129,0.294-0.231c0.088-0.103,0.16-0.231,0.217-0.385
		c0.056-0.154,0.084-0.334,0.084-0.539V13.145z"/>
	<path fill="#333333" d="M123.665,11.8v4.76c0,0.392,0.054,0.651,0.161,0.777s0.296,0.188,0.567,0.188
		c0.271,0,0.497-0.116,0.679-0.35s0.287-0.527,0.315-0.882h0.588c-0.075,0.569-0.206,1.024-0.393,1.364
		c-0.187,0.342-0.396,0.603-0.63,0.785c-0.233,0.182-0.472,0.301-0.714,0.356c-0.243,0.056-0.457,0.084-0.644,0.084
		c-0.495,0-0.871-0.114-1.128-0.343c-0.256-0.229-0.436-0.544-0.538-0.945c-0.075,0.158-0.164,0.314-0.267,0.469
		s-0.227,0.292-0.371,0.414c-0.145,0.121-0.313,0.219-0.504,0.293s-0.413,0.112-0.665,0.112c-0.299,0-0.593-0.056-0.882-0.168
		s-0.553-0.294-0.791-0.546s-0.43-0.586-0.574-1.001s-0.217-0.927-0.217-1.533c0-0.429,0.049-0.872,0.147-1.33
		c0.098-0.457,0.252-0.877,0.462-1.26s0.485-0.698,0.826-0.945c0.34-0.247,0.753-0.371,1.238-0.371c0.112,0,0.233,0.007,0.364,0.021
		c0.131,0.014,0.257,0.047,0.378,0.098c0.121,0.052,0.233,0.126,0.336,0.224s0.182,0.231,0.238,0.399V11.8H123.665z M121.649,13.145
		c-0.01-0.038-0.028-0.087-0.057-0.148c-0.027-0.061-0.069-0.121-0.126-0.182c-0.056-0.061-0.126-0.112-0.21-0.154
		s-0.182-0.063-0.294-0.063c-0.224,0-0.417,0.096-0.581,0.287c-0.163,0.191-0.294,0.43-0.392,0.714
		c-0.098,0.285-0.17,0.598-0.217,0.938c-0.047,0.34-0.07,0.664-0.07,0.973c0,0.494,0.037,0.88,0.112,1.155
		c0.074,0.275,0.165,0.476,0.272,0.602s0.222,0.201,0.344,0.224c0.121,0.023,0.224,0.035,0.308,0.035
		c0.103,0,0.208-0.025,0.315-0.076c0.106-0.052,0.205-0.129,0.294-0.231c0.088-0.103,0.16-0.231,0.217-0.385
		c0.056-0.154,0.084-0.334,0.084-0.539V13.145z"/>
	<path fill="#333333" d="M130.735,11.8v8.12c0,0.494-0.061,0.898-0.182,1.211c-0.122,0.313-0.278,0.555-0.469,0.728
		c-0.191,0.173-0.401,0.29-0.631,0.351c-0.229,0.061-0.45,0.091-0.665,0.091c-0.271,0-0.524-0.037-0.763-0.112
		c-0.238-0.074-0.443-0.18-0.616-0.314c-0.173-0.136-0.31-0.301-0.413-0.497c-0.103-0.196-0.153-0.415-0.153-0.658
		c0-0.252,0.054-0.479,0.161-0.679c0.106-0.201,0.249-0.376,0.427-0.525c0.177-0.149,0.378-0.277,0.602-0.385
		c0.225-0.107,0.453-0.199,0.687-0.273v-0.77c-0.122,0.178-0.25,0.317-0.385,0.42c-0.136,0.103-0.271,0.182-0.406,0.238
		c-0.136,0.056-0.271,0.093-0.406,0.111c-0.136,0.02-0.264,0.028-0.385,0.028c-0.663,0-1.142-0.196-1.436-0.588
		s-0.44-0.919-0.44-1.582V11.8h2.016v4.76c0,0.354,0.049,0.604,0.147,0.749c0.098,0.145,0.24,0.217,0.427,0.217
		c0.252,0,0.452-0.116,0.602-0.35s0.238-0.527,0.267-0.882V11.8H130.735z M127.586,20.592c0,0.187,0.063,0.336,0.188,0.448
		s0.254,0.168,0.385,0.168c0.168,0,0.304-0.103,0.406-0.308c0.103-0.206,0.154-0.519,0.154-0.938v-0.406
		c-0.317,0.131-0.586,0.28-0.806,0.448C127.695,20.172,127.586,20.367,127.586,20.592z"/>
</g>
<g>
</g>
<g>
</g>
<g>
</g>
<g>
</g>
<g>
</g>
<g>
</g>
<g>
</g>
<g>
</g>
<g>
</g>
<g>
</g>
<g>
</g>
<g>
</g>
<g>
</g>
<g>
</g>
<g>
</g>
</svg>
