<?xml version="1.0" encoding="utf-8"?>
<!-- Generator: Adobe Illustrator 16.0.3, SVG Export Plug-In . SVG Version: 6.00 Build 0)  -->
<!DOCTYPE svg PUBLIC "-//W3C//DTD SVG 1.1//EN" "http://www.w3.org/Graphics/SVG/1.1/DTD/svg11.dtd">
<svg version="1.1" xmlns="http://www.w3.org/2000/svg" xmlns:xlink="http://www.w3.org/1999/xlink" x="0px" y="0px" width="400px"
	 height="80px" viewBox="0 0 400 80" style="enable-background:new 0 0 400 80;" xml:space="preserve">
<style type="text/css">
<![CDATA[
	.st0{fill:transparent;
	-webkit-animation: color10 2s forwards 7.25s;
			-moz-animation: color10 2s forwards 7.25s;
			-o-animation: color10 2s forwards 7.25s;
			animation: color10 2s forwards 7.25s;}

	.st1{fill:none;
		stroke:#525252;
		stroke-dasharray: 600;
	    stroke-dashoffset: 0;
		stroke-miterlimit:10;
		     -webkit-animation: contorno 10s forwards;
		     -moz-animation: contorno 10s forwards;
		     -o-animation: contorno 10s forwards;
		     animation: contorno 10s forwards;}
		@-webkit-keyframes contorno {
			0% {
				stroke-dashoffset: 600;
			}
			90% {
				stroke: #525252;
			}

			100% {
				stroke-dashoffset: 0;
				stroke: transparent;
			}
		}@-keyframes contorno {
			0% {
				stroke-dashoffset: 600;
			}
			90% {
				stroke: #525252;
			}

			100% {
				stroke-dashoffset: 0;
				stroke: transparent;
			}
		}
		
	.st2{fill:transparent;
	-webkit-animation: color6 2s forwards 6.25s;
			-moz-animation: color6 2s forwards 6.25s;
			-o-animation: color6 2s forwards 6.25s;
			animation: color6 2s forwards 6.25s;}
	.st3{fill:transparent;
	        -webkit-animation: nombre 5s forwards 4s;
			-moz-animation: nombre 5s forwards 4s;
			-o-animation: nombre 5s forwards 4s;
			animation: nombre 5s forwards 4s;}

	.st4{fill:transparent;
	-webkit-animation: color3 2s forwards 5.5s;
			-moz-animation: color3 2s forwards 5.5s;
			-o-animation: color3 2s forwards 5.5s;
			animation: color3 2s forwards 5.5s;}

	.st5{fill:transparent;
	webkit-animation: color7 2s forwards 6.5s;
			-moz-animation: color7 2s forwards 6.5s;
			-o-animation: color7 2s forwards 6.5s;
			animation: color7 2s forwards 6.5s;}

	.st6{fill:transparent;
	-webkit-animation: color11 2s forwards 7.5s;
			-moz-animation: color11 2s forwards 7.5s;
			-o-animation: color11 2s forwards 7.5s;
			animation: color11 2s forwards 7.5s;}

	.st7{fill:transparent;
	-webkit-animation: color12 2s forwards 7.75s;
			-moz-animation: color12 2s forwards 7.75s;
			-o-animation: color12 2s forwards 7.75;
			animation: color12 2s forwards 7.75s;}

	.st8{fill:transparent;
	-webkit-animation: color13 2s forwards 8s;
			-moz-animation: color13 2s forwards 8s;
			-o-animation: color13 2s forwards 8s;
			animation: color13 2s forwards 8s;}

	.st9{fill:transparent;
	-webkit-animation: color14 2s forwards 8.25s;
			-moz-animation: color14 2s forwards 8.25s;
			-o-animation: color14 2s forwards 8.25s;
			animation: color14 2s forwards 8.25s;}

	.st10{fill:transparent;

	-webkit-animation: color15 2s forwards 8.5s;
			-moz-animation: color15 2s forwards 8.5s;
			-o-animation: color15 2s forwards 8.5s;
			animation: color15 2s forwards 8.5s;}

	.st11{fill:none;}

	.st12{fill:transparent;
	-webkit-animation: color8 2s forwards 6.75s;
			-moz-animation: color8 2s forwards 6.75s;
			-o-animation: color8 2s forwards 6.75s;
			animation: color8 2s forwards 6.75s;}

	.st13{fill:transparent;
	-webkit-animation: color1 2s forwards 5s;
			-moz-animation: color1 2s forwards 5s;
			-o-animation: color1 2s forwards 5s;
			animation: color1 2s forwards 5s;}

	.st14{fill:transparent;
	-webkit-animation: color9 2s forwards 7s;
			-moz-animation: color9 2s forwards 7s;
			-o-animation: color9 2s forwards 7s;
			animation: color9 2s forwards 7s;}
			
	.st15{fill:transparent;
	-webkit-animation: color4 2s forwards 5.75s;
			-moz-animation: color4 2s forwards 5.75s;
			-o-animation: color4 2s forwards 5.75s;
			animation: color4 2s forwards 5.75s;
	}
	.st16{fill:transparent;
	-webkit-animation: color5 2s forwards 6s;
			-moz-animation: color5 2s forwards 6s;
			-o-animation: color5 2s forwards 6s;
			animation: color5 2s forwards 6s;
	}
	.st17{fill:transparent;
	        -webkit-animation: color2 2s forwards 5.25s;
			-moz-animation: color2 2s forwards 5.25s;
			-o-animation: color2 2s forwards 5.25s;
			animation: color2 2s forwards 5.25s;}
	@-webkit-keyframes nombre {
			from {
				fill: transparent;
			}

			to {
				fill: #525252;
			}
		}

		@-keyframes nombre {
			from {
				fill: transparent;
			}

			to {
				fill: #525252;
			}
		}
		@-webkit-keyframes color1 {
			from {
				fill: transparent;
			}

			to {
				fill: #6E0D66;
			}
		}

		@-keyframes color1 {
			from {
				fill: transparent;
			}

			to {
				fill:#6E0D66;
			}
		}
		@-webkit-keyframes color2 {
			from {
				fill: transparent;
			}

			to {
				fill: #791565;
			}
		}

		@-keyframes color2 {
			from {
				fill: transparent;
			}

			to {
				fill:#791565;
			}
		}
		@-webkit-keyframes color3 {
			from {
				fill: transparent;
			}

			to {
				fill: #8B2263;
			}
		}

		@-keyframes color3 {
			from {
				fill: transparent;
			}

			to {
				fill:#8B2263;
			}
		}@-webkit-keyframes color4 {
			from {
				fill: transparent;
			}

			to {
				fill: #A12A65;
			}
		}

		@-keyframes color4 {
			from {
				fill: transparent;
			}

			to {
				fill: #A12A65;
			}
		}
		@-webkit-keyframes color5 {
			from {
				fill: transparent;
			}

			to {
				fill: #A73760;
			}
		}

		@-keyframes color5 {
			from {
				fill: transparent;
			}

			to {
				fill:#A73760;
			}
		}
		@-webkit-keyframes color6 {
			from {
				fill: transparent;
			}

			to {
				fill: #b5425f;
			}
		}

		@-keyframes color6 {
			from {
				fill: transparent;
			}

			to {
				fill:#b5425f;
			}
		}
		@-webkit-keyframes color7 {
			from {
				fill: transparent;
			}

			to {
				fill: #be495e;
			}
		}

		@-keyframes color7 {
			from {
				fill: transparent;
			}

			to {
				fill:#be495e;
			}
		}
		@-webkit-keyframes color8 {
			from {
				fill: transparent;
			}

			to {
				fill: #cb525d;
			}
		}

		@-keyframes color8 {
			from {
				fill: transparent;
			}

			to {
				fill:#cb525d;
			}
		}
		@-webkit-keyframes color9 {
			from {
				fill: transparent;
			}

			to {
				fill: #e5665a;
			}
		}

		@-keyframes color9 {
			from {
				fill: transparent;
			}

			to {
				fill:#e5665a;
			}
		}
		@-webkit-keyframes color10 {
			from {
				fill: transparent;
			}

			to {
				fill: #f37257;
			}
		}

		@-keyframes color10 {
			from {
				fill: transparent;
			}

			to {
				fill:#f37257;
			}
		}
		@-webkit-keyframes color11 {
			from {
				fill: transparent;
			}

			to {
				fill: #f37257;
			}
		}

		@-keyframes color11 {
			from {
				fill: transparent;
			}

			to {
				fill:#f37257;
			}
		}
		@-webkit-keyframes color12 {
			from {
				fill: transparent;
			}

			to {
				fill: #f5834b;
			}
		}

		@-keyframes color12 {
			from {
				fill: transparent;
			}

			to {
				fill:#f5834b;
			}
		}
		@-webkit-keyframes color13 {
			from {
				fill: transparent;
			}

			to {
				fill: #f9a133;
			}
		}

		@-keyframes color13 {
			from {
				fill: transparent;
			}

			to {
				fill:#f9a133;
			}
		}
		@-webkit-keyframes color14 {
			from {
				fill: transparent;
			}

			to {
				fill: #fcb524;
			}
		}

		@-keyframes color14 {
			from {
				fill: transparent;
			}

			to {
				fill:#fcb524;
			}
		}
		@-webkit-keyframes color15 {
			from {
				fill: transparent;
			}

			to {
				fill: #ffcd11;
			}
		}

		@-keyframes color15 {
			from {
				fill: transparent;
			}

			to {
				fill:#ffcd11;
			}
		}
]]>
</style>
<g id="isotipo">
	<path class="st10" d="M91.515,46.692c0.787-4.149,0.28-8.713-1.009-12.76l-2.522,9.598c-0.226,3.681-1.118,8.254-3.325,12.656
		l-3.605,13.72C85.362,65.637,89.286,58.439,91.515,46.692z"/>
	<path class="st9" d="M90.506,33.932c-0.157-0.493-0.321-0.983-0.501-1.459c-0.903-2.396-2.126-4.546-3.703-6.223l-1.576,5.997
		c1.065,1.09,2.001,2.493,2.739,4.3c0.39,1.09,0.721,3.677,0.518,6.984L90.506,33.932z"/>
	<path class="st9" d="M81.053,69.906l3.605-13.72c-1.878,3.746-4.713,7.362-8.904,10.202l-2.166,8.241
		C76.043,73.809,78.608,72.329,81.053,69.906z"/>
	<path class="st8" d="M75.731,42.797l-1.561,5.938c0.545,0.214,0.463,0.875-0.455,1.729l-2.183,8.307
		C74.823,57.316,82.829,51.052,75.731,42.797z"/>
	<path class="st8" d="M80.929,23.015l-1.654,6.294c1.988,0.403,3.866,1.315,5.451,2.937l1.576-5.997
		C84.835,24.688,83.055,23.547,80.929,23.015z"/>
	<path class="st8" d="M73.589,74.63l2.166-8.241c-0.55,0.373-1.116,0.737-1.714,1.082c-0.764,0.447-2.816,1.205-5.16,1.394
		l-1.733,6.593C69.06,75.603,71.271,75.405,73.589,74.63z"/>
	<path class="st7" d="M69.139,53.017c-1.348,0.901-1.51,7.978,2.015,5.909c0.117-0.043,0.245-0.097,0.379-0.156l2.183-8.307
		C72.901,51.223,71.432,52.132,69.139,53.017z"/>
	<path class="st7" d="M79.275,29.31l1.654-6.294c-1.255-0.314-2.624-0.427-4.128-0.273c-0.711,0.073-1.41,0.178-2.102,0.298
		l-1.673,6.368C75.082,29.006,77.234,28.896,79.275,29.31z"/>
	<path class="st7" d="M69.479,42.904l-1.952,7.43c1.853-0.85,4.032-1.452,6.613-1.614c0.012,0.004,0.019,0.011,0.03,0.015
		l1.561-5.938c-0.003-0.004-0.006-0.007-0.009-0.011C74.905,41.833,72.671,41.882,69.479,42.904z"/>
	<path class="st7" d="M67.147,75.457l1.733-6.593c-1.956,0.157-4.114-0.08-5.899-1.232l-1.546,5.885
		c0.021,0.023,0.039,0.046,0.06,0.069C62.458,74.426,64.52,75.258,67.147,75.457z"/>
	<path class="st6" d="M66.175,31.81c1.863-0.944,4.279-1.899,6.852-2.402l1.673-6.368c-2.354,0.41-4.597,1.084-6.739,1.975
		L66.175,31.81z"/>
	<path class="st6" d="M62.981,67.632c-1.537-0.992-2.796-2.661-3.408-5.334c-0.981-2.217,1.155-8.85,7.954-11.964l1.952-7.43
		c-1.417,0.453-3.021,1.098-4.777,1.935c-0.761,0.362-1.574,0.928-2.386,1.654l-5.241,19.943c0.835,2.361,2.232,4.751,4.359,7.08
		L62.981,67.632z"/>
	<path class="st0" d="M57.076,66.437l5.241-19.943C58.207,50.171,54.136,58.121,57.076,66.437z"/>
	<path class="st0" d="M66.175,31.81l1.786-6.795c-2.566,1.067-4.99,2.44-7.286,4.035l-2.148,8.175
		c1.798-1.658,3.449-2.963,4.837-3.723C63.991,33.027,64.969,32.421,66.175,31.81z"/>
	<path class="st14" d="M52.668,35.829l-2.773,10.557c2.98-3.47,5.97-6.708,8.631-9.161l2.148-8.175
		C57.825,31.028,55.168,33.345,52.668,35.829z"/>
	<path class="st12" d="M58.222,4.756c-0.758-1.078-1.619-0.183-2.586,0.704c-0.961,0.886-0.961,0.886-0.961,0.886
		s-0.243,0.278-0.678,0.755l-3,11.419C55.69,14.449,61.28,9.346,58.222,4.756z"/>
	<path class="st12" d="M52.668,35.829c-0.072,0.072-0.146,0.142-0.218,0.213c-3.099,3.101-5.92,6.465-8.658,9.894l-3.098,11.79
		c2.759-3.563,5.97-7.58,9.201-11.341L52.668,35.829z"/>
	<path class="st5" d="M45.671,15.099L41.753,30.01c1.343-2.483,2.834-4.867,4.526-7.043c0.953-1.227,2.757-2.748,4.717-4.447
		l3-11.419C52.627,8.601,49.344,12.07,45.671,15.099z"/>
	<path class="st5" d="M40.694,57.727l3.098-11.79c-1.489,1.864-2.955,3.748-4.424,5.619c-1.215,1.558-2.441,3.111-3.691,4.643
		c-0.448,0.549-0.836,1.022-1.188,1.451l-3.518,13.388c0.833-1.228,1.762-2.668,1.762-2.668S36.079,63.689,40.694,57.727z"/>
	<path class="st2" d="M31.754,60.888c0.44-6.664,2.601-13.194,4.909-19.409c1.424-3.834,3.086-7.765,5.09-11.469l3.918-14.911
		c-1.423,1.174-2.902,2.284-4.354,3.183c-1.045,0.798-2.152,1.535-3.292,2.233l-2.186,8.316c1.021-0.603,1.971-1.198,2.816-1.779
		c-1.66,2.16-4.086,7.962-6.251,14.852l-3.286,12.503c-1.235,5.924-1.91,11.601-1.471,15.669c0.229,2.708,1.645,3.045,2.103,2.63
		c0.181-0.164,0.682-0.872,1.222-1.669l3.518-13.388C31.597,61.173,31.757,60.868,31.754,60.888z"/>
	<g>
		<g>
			<path class="st16" d="M32.404,41.904c-1.248,3.969-2.409,8.296-3.286,12.503L32.404,41.904z"/>
			<path class="st16" d="M28.611,32.66c2.604-1.266,5.083-2.563,7.229-3.829l2.186-8.316c-2.309,1.414-4.77,2.653-7.229,3.829
				L28.611,32.66z"/>
		</g>
	</g>
	<path class="st15" d="M28.611,32.66l2.186-8.316c-1.572,0.752-3.142,1.482-4.667,2.215c-0.813,0.391-1.63,0.778-2.445,1.167
		l-2.151,8.187C23.889,34.885,26.297,33.786,28.611,32.66z"/>
	<path class="st4" d="M14.543,38.833c2.161-0.864,4.544-1.853,6.99-2.92l2.151-8.187c-2.351,1.123-4.71,2.23-7.088,3.295
		L14.543,38.833z"/>
	<path class="st17" d="M7.636,41.442c1.676-0.581,4.098-1.487,6.907-2.609l2.053-7.812c-2.306,1.032-4.636,2.007-6.988,2.919
		L7.636,41.442z"/>
	<path class="st13" d="M8.073,34.546C6.87,34.994,5.5,35.206,4.524,35.92c-0.465,0.343-0.844,0.797-1.073,1.443
		c-0.618,1.75-0.646,4.611,1.78,4.795c0.183,0.013,1.056-0.248,2.406-0.717l1.971-7.502C9.095,34.139,8.588,34.355,8.073,34.546z"/>
</g>
<g id="nombre">
	<path class="st3" d="M128.434,29.93v30.463h-5.62l-9.202-20.285v20.285h-3.911V32.78c-1.249,0.6-2.212,1.44-2.889,2.526
		c-0.679,1.088-1.019,2.444-1.019,4.071c0,0.869,0.053,1.583,0.163,2.138c0.107,0.56,0.237,1.01,0.387,1.365
		c0.148,0.354,0.306,0.645,0.469,0.873c0.161,0.234,0.311,0.446,0.446,0.635c-1.791,0-3.136-0.412-4.031-1.246
		c-0.896-0.822-1.344-2.215-1.344-4.169c0-1.114,0.217-2.214,0.651-3.302c0.436-1.085,1.079-2.063,1.935-2.93
		c0.854-0.868,1.934-1.565,3.237-2.097c1.302-0.531,2.822-0.793,4.561-0.793c0.326,0,0.746,0.025,1.263,0.08
		c0.515,0.057,1.085,0.22,1.71,0.488l9.487,21.584V29.93H128.434z M134.989,37.829c0.897,0,1.663-0.312,2.3-0.936
		c0.638-0.623,0.958-1.386,0.958-2.28c0-0.896-0.32-1.662-0.958-2.301c-0.637-0.637-1.403-0.954-2.3-0.954
		c-0.896,0-1.656,0.316-2.28,0.954c-0.624,0.64-0.937,1.405-0.937,2.301c0,0.895,0.313,1.657,0.937,2.28
		C133.333,37.518,134.094,37.829,134.989,37.829z M156.591,42.166c-0.176-0.417-0.419-0.807-0.732-1.16
		c-0.311-0.354-0.68-0.638-1.098-0.854c-0.421-0.22-0.891-0.324-1.405-0.324c-0.87,0-1.67,0.277-2.403,0.833
		c-0.733,0.558-1.398,1.19-1.995,1.894v-2.524h-5.864v13.075c-0.08,1.028-0.386,1.885-0.915,2.564
		c-0.53,0.681-1.188,1.017-1.975,1.017c-0.789,0-1.337-0.183-1.65-0.554c-0.313-0.365-0.468-1.12-0.468-2.256V40.029h-5.863v14.292
		c0,1.902,0.421,3.428,1.261,4.586c0.842,1.149,2.308,1.726,4.4,1.726c0.541,0,1.167-0.079,1.873-0.239
		c0.705-0.166,1.397-0.509,2.076-1.04c0.453-0.354,0.871-0.818,1.262-1.376v2.416h5.864V44.919c0.434-0.463,0.85-0.852,1.242-1.166
		c0.395-0.308,0.794-0.468,1.201-0.468c0.38,0,0.644,0.137,0.794,0.406c0.15,0.273,0.291,0.57,0.428,0.879
		c0.134,0.313,0.324,0.605,0.568,0.879c0.246,0.27,0.678,0.4,1.304,0.4c0.841,0,1.446-0.245,1.812-0.748
		c0.367-0.502,0.55-1.057,0.55-1.651C156.856,43.018,156.769,42.588,156.591,42.166z M169.072,39.219
		c1.384,0,2.384,0.673,2.992,2.032c0.611,1.359,0.917,3.228,0.917,5.622c0,1.548-0.134,3.136-0.409,4.764
		c-0.268,1.628-0.731,3.106-1.382,4.438c-0.651,1.331-1.513,2.422-2.586,3.278c-1.072,0.852-2.41,1.279-4.011,1.279
		c-1.956,0-3.475-0.61-4.562-1.834c-1.085-1.217-1.626-2.861-1.626-4.923V40.029h5.862v13.847c0,0.976,0.135,1.69,0.407,2.136
		c0.271,0.451,0.719,0.674,1.344,0.674c0.787,0,1.465-0.313,2.036-0.942c0.57-0.617,1.039-1.422,1.406-2.399
		c0.367-0.976,0.638-2.062,0.813-3.256c0.177-1.193,0.266-2.365,0.266-3.501c0-1.251-0.11-2.416-0.327-3.502
		c-0.054,0.138-0.23,0.239-0.528,0.303c-0.3,0.069-0.53,0.104-0.693,0.104c-0.298,0-0.564-0.081-0.795-0.246
		c-0.229-0.16-0.434-0.371-0.611-0.628c-0.174-0.258-0.311-0.537-0.405-0.834c-0.095-0.298-0.143-0.583-0.143-0.856
		c0-0.489,0.168-0.897,0.508-1.223C167.884,39.377,168.394,39.219,169.072,39.219z M236.139,56.686
		c-0.789,0-1.337-0.183-1.648-0.554c-0.312-0.365-0.468-1.12-0.468-2.256V40.029h-5.864v1.954c-0.163-0.486-0.395-0.874-0.694-1.16
		c-0.297-0.286-0.622-0.503-0.977-0.651c-0.351-0.148-0.72-0.246-1.101-0.285c-0.379-0.041-0.73-0.06-1.057-0.06
		c-1.413,0-2.612,0.358-3.604,1.075c-0.991,0.721-1.793,1.64-2.405,2.748c-0.611,1.12-1.057,2.337-1.342,3.667
		c-0.286,1.331-0.428,2.622-0.428,3.868c0,1.272,0.113,2.397,0.333,3.381c-0.143,0.407-0.3,0.776-0.477,1.103
		c-0.365,0.681-1.012,1.017-1.931,1.017c-0.843,0-1.389-0.291-1.632-0.879c-0.241-0.577-0.365-1.457-0.365-2.622
		c0-0.354,0.009-0.789,0.021-1.303c0.011-0.521,0.034-1.045,0.063-1.588c0.023-0.548,0.046-1.08,0.061-1.611
		c0.014-0.53,0.021-0.971,0.021-1.325c0-1.41-0.152-2.599-0.452-3.564c-0.303-0.96-0.72-1.735-1.251-2.318
		c-0.534-0.583-1.148-0.997-1.845-1.239c-0.697-0.246-1.429-0.365-2.193-0.365c-0.705,0-1.448,0.14-2.234,0.421
		c-0.784,0.289-1.487,0.909-2.107,1.857l-0.018-2.119h-5.863v14.659c-0.145,0.356-0.323,0.688-0.552,0.98
		c-0.525,0.681-1.185,1.017-1.973,1.017c-0.785,0-1.337-0.183-1.648-0.554c-0.314-0.365-0.469-1.12-0.469-2.256V40.029h-5.863v1.954
		c-0.163-0.486-0.397-0.874-0.694-1.16c-0.296-0.286-0.622-0.503-0.977-0.651c-0.354-0.148-0.72-0.246-1.1-0.285
		c-0.38-0.041-0.734-0.06-1.06-0.06c-1.411,0-2.611,0.358-3.604,1.075c-0.988,0.721-1.791,1.64-2.402,2.748
		c-0.608,1.12-1.057,2.337-1.345,3.667c-0.283,1.331-0.423,2.622-0.423,3.868c0,1.765,0.208,3.256,0.628,4.461
		c0.423,1.211,0.977,2.177,1.668,2.913c0.697,0.73,1.459,1.256,2.302,1.589c0.843,0.324,1.697,0.484,2.565,0.484
		c0.737,0,1.376-0.108,1.937-0.326c0.554-0.217,1.045-0.496,1.465-0.85c0.419-0.354,0.78-0.76,1.077-1.206
		c0.3-0.445,0.56-0.902,0.777-1.365c0.297,1.172,0.822,2.085,1.565,2.754c0.748,0.662,1.839,0.993,3.279,0.993
		c0.542,0,1.167-0.079,1.874-0.239c0.708-0.166,1.399-0.509,2.079-1.04c0.313-0.245,0.609-0.545,0.894-0.889v1.929h5.863V47.317
		c0.029-0.462,0.095-0.92,0.207-1.364c0.108-0.446,0.257-0.847,0.444-1.2c0.191-0.354,0.429-0.634,0.714-0.856
		c0.286-0.217,0.629-0.326,1.037-0.326c0.678,0,1.203,0.349,1.568,1.04c0.366,0.696,0.549,1.851,0.549,3.484
		c0,0.269-0.006,0.628-0.018,1.079c-0.018,0.446-0.022,0.914-0.022,1.4c0,0.491-0.007,0.959-0.018,1.404
		c-0.017,0.446-0.023,0.795-0.023,1.041c0,2.307,0.474,4.152,1.417,5.54c0.942,1.382,2.468,2.073,4.57,2.073
		c0.597,0,1.208-0.085,1.833-0.263c0.623-0.177,1.206-0.525,1.749-1.063c0.5-0.481,0.948-1.17,1.355-2.046
		c0.28,0.492,0.596,0.925,0.945,1.298c0.691,0.73,1.457,1.256,2.303,1.589c0.84,0.324,1.696,0.484,2.564,0.484
		c0.731,0,1.376-0.108,1.931-0.326c0.561-0.217,1.048-0.496,1.469-0.85c0.422-0.354,0.782-0.76,1.079-1.206
		c0.297-0.445,0.557-0.902,0.771-1.365c0.275,1.143,0.764,2.051,1.469,2.73c0.708,0.68,1.736,1.017,3.096,1.017
		c1.141,0,1.934-0.302,2.382-0.919c0.446-0.606,0.794-1.674,1.04-3.193C236.738,56.629,236.467,56.686,236.139,56.686z
		 M186.176,53.104c0,0.594-0.083,1.12-0.246,1.564c-0.162,0.446-0.374,0.823-0.631,1.12s-0.543,0.52-0.857,0.674
		c-0.311,0.148-0.617,0.223-0.914,0.223c-0.246,0-0.542-0.034-0.896-0.102c-0.354-0.069-0.686-0.286-0.997-0.651
		c-0.311-0.366-0.58-0.948-0.793-1.755c-0.22-0.8-0.326-1.919-0.326-3.357c0-0.898,0.065-1.841,0.203-2.828
		c0.137-0.995,0.345-1.903,0.631-2.73c0.285-0.829,0.666-1.521,1.139-2.079c0.474-0.555,1.04-0.834,1.691-0.834
		c0.326,0,0.611,0.063,0.857,0.183c0.243,0.126,0.445,0.274,0.608,0.451c0.163,0.177,0.285,0.354,0.369,0.526
		c0.08,0.183,0.134,0.318,0.163,0.433V53.104z M228.158,53.139c0,0.605-0.083,1.113-0.246,1.554c-0.159,0.434-0.371,0.8-0.631,1.097
		c-0.257,0.297-0.54,0.52-0.854,0.674c-0.315,0.148-0.617,0.223-0.917,0.223c-0.243,0-0.546-0.034-0.895-0.102
		c-0.354-0.069-0.688-0.286-0.999-0.651c-0.312-0.366-0.577-0.948-0.795-1.755c-0.216-0.8-0.324-1.919-0.324-3.357
		c0-0.898,0.067-1.841,0.205-2.828c0.131-0.995,0.343-1.903,0.628-2.73c0.286-0.829,0.666-1.521,1.143-2.079
		c0.474-0.555,1.037-0.834,1.688-0.834c0.325,0,0.603,0.063,0.836,0.183c0.229,0.126,0.43,0.269,0.589,0.428
		c0.166,0.166,0.285,0.338,0.366,0.509c0.085,0.177,0.148,0.325,0.205,0.429V53.139z M259.309,33.717
		c-0.565,0.383-1.058,1.086-1.478,2.12c-0.417,1.027-0.766,2.21-1.049,3.54c-0.286,1.332-0.494,2.729-0.627,4.193
		c-0.135,1.466-0.203,2.854-0.203,4.156c0,1.953,0.144,3.544,0.43,4.764c0.283,1.223,0.636,2.17,1.059,2.851
		c0.419,0.68,0.867,1.131,1.342,1.365c0.477,0.228,0.902,0.345,1.285,0.345c0.813,0,1.524-0.374,2.136-1.118
		c0.611-0.749,1.126-1.746,1.547-2.997c0.421-1.248,0.734-2.676,0.937-4.296c0.204-1.613,0.307-3.29,0.307-5.029
		c0-2.468-0.198-4.478-0.592-6.023c-0.392-1.551-0.929-2.757-1.607-3.627c-0.679-0.865-1.474-1.448-2.383-1.751
		c-0.91-0.297-1.865-0.446-2.871-0.446c-1.302,0-2.539,0.196-3.705,0.589c-1.167,0.394-2.187,0.972-3.054,1.731
		c-0.87,0.76-1.557,1.696-2.057,2.811c-0.504,1.113-0.755,2.376-0.755,3.787c0,1.005,0.11,1.77,0.323,2.302
		c0.218,0.528,0.474,1.009,0.771,1.445c-1.545,0-2.757-0.349-3.639-1.04c-0.883-0.691-1.322-1.796-1.322-3.318
		c0-1.385,0.374-2.693,1.12-3.93c0.744-1.233,1.753-2.314,3.027-3.236c1.273-0.923,2.771-1.657,4.493-2.199
		c1.722-0.546,3.557-0.814,5.508-0.814c2.357,0,4.336,0.395,5.936,1.18c1.6,0.786,2.873,1.86,3.824,3.219
		c0.948,1.357,1.625,2.93,2.033,4.723c0.406,1.789,0.61,3.677,0.61,5.658c0,1.196-0.07,2.419-0.204,3.665
		c-0.139,1.251-0.374,2.461-0.714,3.644c-0.337,1.183-0.777,2.3-1.318,3.362c-0.543,1.059-1.22,1.982-2.032,2.771
		c-0.813,0.785-1.774,1.411-2.884,1.87c-1.113,0.463-2.387,0.694-3.824,0.694c-1.299,0-2.54-0.22-3.718-0.651
		c-1.178-0.437-2.222-1.153-3.128-2.158c-0.909-1.007-1.628-2.328-2.153-3.971c-0.529-1.643-0.794-3.688-0.794-6.13
		c0-1.468,0.113-3.042,0.346-4.724c0.23-1.683,0.63-3.235,1.2-4.664c0.567-1.422,1.326-2.61,2.271-3.564
		c0.948-0.948,2.129-1.422,3.535-1.422c0.299,0,0.623,0.021,0.977,0.063C258.564,33.491,258.93,33.579,259.309,33.717z
		 M279.571,40.069v2.524c0.596-0.705,1.261-1.336,1.996-1.894c0.731-0.558,1.53-0.834,2.4-0.834c0.517,0,0.982,0.108,1.404,0.326
		c0.421,0.219,0.786,0.502,1.101,0.854c0.312,0.354,0.556,0.739,0.731,1.159c0.176,0.426,0.264,0.852,0.264,1.286
		c0,0.597-0.181,1.147-0.546,1.647c-0.366,0.506-0.973,0.754-1.814,0.754c-0.623,0-1.059-0.135-1.302-0.405
		c-0.244-0.274-0.435-0.565-0.573-0.877c-0.135-0.311-0.277-0.605-0.426-0.877c-0.147-0.268-0.416-0.405-0.795-0.405
		c-0.407,0-0.806,0.154-1.201,0.465c-0.391,0.312-0.807,0.703-1.239,1.165v15.473h-5.863V40.069H279.571z M378.12,40.069v13.072
		c-0.083,1.031-0.344,1.888-0.777,2.564c-0.437,0.68-1.017,1.018-1.75,1.018c-0.541,0-0.958-0.209-1.24-0.631
		c-0.288-0.421-0.432-1.149-0.432-2.181V40.069h-5.86v14.295c0,0.111,0.016,0.209,0.019,0.318c-0.147,0.375-0.333,0.72-0.57,1.023
		c-0.527,0.68-1.188,1.018-1.973,1.018c-0.792,0-1.34-0.181-1.651-0.549c-0.311-0.368-0.468-1.12-0.468-2.263V40.069h-5.863v1.953
		c-0.167-0.488-0.395-0.874-0.691-1.159c-0.3-0.286-0.626-0.503-0.98-0.651c-0.352-0.148-0.717-0.245-1.097-0.286
		c-0.383-0.039-0.737-0.06-1.063-0.06c-1.41,0-2.613,0.362-3.602,1.076c-0.991,0.721-1.79,1.638-2.402,2.751
		c-0.61,1.113-1.059,2.333-1.341,3.664c-0.29,1.331-0.433,2.622-0.433,3.871c0,1.53,0.17,2.841,0.486,3.954
		c-0.103,0.185-0.216,0.36-0.344,0.523c-0.527,0.68-1.186,1.018-1.973,1.018c-0.792,0-1.337-0.181-1.651-0.549
		c-0.311-0.368-0.468-1.12-0.468-2.263V31.926l-5.863,0.814v9.282c-0.164-0.488-0.395-0.874-0.694-1.159
		c-0.297-0.286-0.626-0.503-0.978-0.651s-0.717-0.245-1.097-0.286c-0.379-0.039-0.733-0.06-1.06-0.06
		c-1.413,0-2.616,0.362-3.604,1.076c-0.991,0.721-1.79,1.638-2.402,2.751c-0.61,1.113-1.059,2.333-1.341,3.664
		c-0.29,1.331-0.433,2.622-0.433,3.871c0,1.271,0.114,2.394,0.334,3.377c-0.141,0.407-0.298,0.775-0.474,1.101
		c-0.369,0.68-1.014,1.018-1.934,1.018c-0.845,0-1.388-0.292-1.631-0.874c-0.245-0.583-0.369-1.46-0.369-2.625
		c0-0.352,0.009-0.789,0.024-1.305c0.014-0.516,0.031-1.046,0.059-1.589c0.026-0.543,0.047-1.076,0.061-1.605
		c0.015-0.534,0.022-0.971,0.022-1.325c0-1.417-0.153-2.602-0.45-3.564c-0.3-0.965-0.721-1.735-1.251-2.321
		c-0.534-0.583-1.148-0.997-1.849-1.243c-0.697-0.242-1.425-0.365-2.193-0.365c-0.702,0-1.444,0.143-2.233,0.426
		c-0.783,0.286-1.485,0.905-2.105,1.856l-0.021-2.119h-5.86v13.072c-0.382,0.571-0.775,1.105-1.182,1.608
		c-0.409,0.502-0.854,0.937-1.343,1.302c-0.491,0.365-1.045,0.663-1.671,0.874c-0.625,0.217-1.342,0.328-2.159,0.328
		c-1.465,0-2.49-0.388-3.073-1.161c-0.585-0.772-0.888-2.068-0.917-3.889c1.006-0.054,1.988-0.248,2.954-0.588
		c0.962-0.34,1.818-0.831,2.564-1.471c0.745-0.637,1.343-1.414,1.793-2.337c0.446-0.925,0.669-1.999,0.669-3.221
		c0-0.218-0.031-0.583-0.103-1.097c-0.063-0.518-0.269-1.046-0.608-1.589c-0.341-0.543-0.863-1.019-1.565-1.428
		c-0.708-0.405-1.714-0.608-3.016-0.608c-1.708,0-3.123,0.38-4.236,1.14c-1.11,0.76-1.993,1.711-2.645,2.851
		s-1.109,2.382-1.363,3.727c-0.259,1.343-0.391,2.603-0.391,3.765c0,1.656,0.2,3.073,0.59,4.256
		c0.399,1.183,0.953,2.147,1.673,2.894c0.719,0.745,1.567,1.293,2.544,1.645c0.978,0.354,2.052,0.534,3.217,0.534
		c1.386,0,2.59-0.22,3.627-0.651c1.028-0.437,1.931-1.005,2.707-1.71c0.764-0.701,1.408-1.492,1.934-2.373v4.489h5.86V47.357
		c0.029-0.462,0.099-0.917,0.207-1.361c0.108-0.452,0.257-0.849,0.448-1.203c0.188-0.352,0.429-0.635,0.712-0.854
		c0.284-0.221,0.633-0.329,1.039-0.329c0.676,0,1.199,0.349,1.567,1.043c0.366,0.691,0.549,1.851,0.549,3.481
		c0,0.269-0.006,0.629-0.021,1.077c-0.014,0.448-0.021,0.917-0.021,1.405c0,0.487-0.005,0.956-0.019,1.402
		c-0.015,0.448-0.021,0.797-0.021,1.039c0,2.309,0.472,4.152,1.413,5.538c0.946,1.385,2.468,2.079,4.57,2.079
		c0.597,0,1.209-0.088,1.834-0.266c0.625-0.174,1.208-0.528,1.75-1.06c0.501-0.487,0.949-1.172,1.357-2.05
		c0.28,0.493,0.596,0.926,0.945,1.296c0.694,0.734,1.46,1.262,2.303,1.588c0.839,0.329,1.692,0.491,2.564,0.491
		c0.73,0,1.376-0.111,1.933-0.328c0.558-0.215,1.046-0.5,1.468-0.851c0.418-0.357,0.781-0.757,1.077-1.206
		c0.297-0.448,0.558-0.902,0.777-1.365c0.297,1.171,0.822,2.088,1.565,2.75c0.745,0.666,1.839,1,3.278,1
		c0.543,0,1.165-0.086,1.874-0.245c0.702-0.163,1.396-0.509,2.073-1.037c0.601-0.471,1.146-1.131,1.642-1.964
		c0.261,0.438,0.547,0.831,0.866,1.167c0.691,0.734,1.46,1.262,2.301,1.588c0.841,0.329,1.694,0.491,2.566,0.491
		c0.73,0,1.376-0.111,1.933-0.328c0.557-0.215,1.046-0.5,1.465-0.851c0.424-0.357,0.78-0.757,1.08-1.206
		c0.297-0.448,0.558-0.902,0.774-1.365c0.3,1.171,0.822,2.088,1.568,2.75c0.745,0.666,1.839,1,3.278,1
		c0.543,0,1.165-0.086,1.874-0.245c0.702-0.163,1.396-0.509,2.076-1.037c0.537-0.422,1.032-0.994,1.485-1.708
		c0.189,0.465,0.407,0.902,0.69,1.28c0.856,1.14,2.248,1.71,4.176,1.71c0.352,0,0.726-0.028,1.119-0.086
		c0.392-0.054,0.786-0.159,1.183-0.322c0.393-0.162,0.789-0.395,1.184-0.694c0.391-0.297,0.762-0.702,1.119-1.22v2.236
		c-0.68,0.217-1.345,0.482-2,0.798c-0.647,0.311-1.236,0.685-1.747,1.119c-0.518,0.434-0.935,0.945-1.243,1.528
		c-0.313,0.582-0.469,1.242-0.469,1.976c0,0.706,0.149,1.343,0.446,1.914c0.303,0.567,0.7,1.048,1.203,1.442
		c0.502,0.394,1.096,0.702,1.79,0.916c0.693,0.218,1.432,0.329,2.219,0.329c0.626,0,1.271-0.088,1.935-0.266
		c0.668-0.174,1.278-0.517,1.833-1.02c0.557-0.502,1.011-1.205,1.365-2.117c0.352-0.908,0.531-2.084,0.531-3.521V40.069H378.12z
		 M294.656,47.13c0.174-1,0.41-1.872,0.694-2.616c0.284-0.74,0.613-1.331,0.996-1.78c0.38-0.445,0.802-0.671,1.262-0.671
		c0.378,0,0.734,0.2,1.057,0.591c0.329,0.392,0.491,1.061,0.491,2.003c0,0.759-0.126,1.459-0.367,2.108
		c-0.243,0.647-0.583,1.222-1.017,1.722c-0.435,0.5-0.952,0.908-1.549,1.217c-0.598,0.311-1.236,0.493-1.914,0.545
		C294.364,49.169,294.479,48.129,294.656,47.13z M336.133,53.142c0,0.597-0.083,1.119-0.243,1.568
		c-0.166,0.445-0.377,0.819-0.631,1.119c-0.261,0.297-0.546,0.522-0.858,0.671c-0.311,0.149-0.619,0.224-0.915,0.224
		c-0.243,0-0.541-0.035-0.895-0.104c-0.354-0.063-0.688-0.282-1-0.648c-0.313-0.368-0.577-0.951-0.794-1.751
		c-0.218-0.802-0.326-1.925-0.326-3.361c0-0.897,0.069-1.839,0.207-2.828c0.134-0.991,0.345-1.901,0.627-2.729
		c0.286-0.826,0.666-1.52,1.143-2.077c0.475-0.554,1.038-0.836,1.688-0.836c0.325,0,0.611,0.062,0.857,0.186
		c0.242,0.122,0.445,0.271,0.607,0.448c0.166,0.174,0.289,0.352,0.368,0.527c0.081,0.178,0.135,0.32,0.164,0.433V53.142z
		 M357.554,53.142c0,0.597-0.083,1.119-0.246,1.568c-0.163,0.445-0.371,0.819-0.628,1.119c-0.261,0.297-0.546,0.522-0.858,0.671
		c-0.311,0.149-0.616,0.224-0.916,0.224c-0.242,0-0.542-0.035-0.894-0.104c-0.357-0.063-0.689-0.282-1-0.648
		c-0.312-0.368-0.577-0.951-0.794-1.751c-0.22-0.802-0.326-1.925-0.326-3.361c0-0.897,0.069-1.839,0.203-2.828
		c0.138-0.991,0.349-1.901,0.635-2.729c0.282-0.826,0.662-1.52,1.136-2.077c0.48-0.554,1.04-0.836,1.691-0.836
		c0.325,0,0.611,0.062,0.854,0.186c0.242,0.122,0.451,0.271,0.61,0.448c0.165,0.174,0.286,0.352,0.365,0.527
		c0.084,0.178,0.138,0.32,0.167,0.433V53.142z M378.12,63.81c0,1.222-0.152,2.134-0.448,2.729c-0.3,0.597-0.694,0.896-1.186,0.896
		c-0.38,0-0.752-0.162-1.119-0.487c-0.366-0.329-0.546-0.763-0.546-1.306c0-0.654,0.316-1.223,0.954-1.711
		c0.637-0.488,1.419-0.922,2.345-1.302V63.81z"/>
	<path class="st11" d="M4.524,35.92c-0.465,0.343-0.844,0.797-1.073,1.443c-0.618,1.75-0.646,4.611,1.78,4.795
		c1.031,0.074,23.735-8.451,33.425-15.107c-3.962,5.156-12.3,31.052-11.009,43.024c0.229,2.708,1.645,3.045,2.103,2.63
		c0.458-0.418,2.984-4.337,2.984-4.337S53.97,38.64,63.364,33.502c3.635-2.753,18.816-9.896,24.102,3.044
		c1.242,3.472,1.894,22.101-13.425,30.924c-1.95,1.142-12.292,4.324-14.467-5.173c-1.248-2.82,2.515-12.819,14.567-13.578
		c1.089,0.372-0.075,2.396-5.001,4.297c-1.348,0.901-1.51,7.978,2.015,5.909c2.992-1.102,11.971-7.544,4.568-16.14
		c-1.18-1.376-5.31-0.668-11.02,2.053c-5.716,2.724-14.398,16.576-3.208,28.747c3.716,3.238,23.693,6.455,30.02-26.894
		c0.883-4.655,0.144-9.837-1.51-14.219c-2.24-5.945-6.415-10.425-13.204-9.731c-9.734,1-17.612,6.553-24.351,13.3
		c-4.785,4.788-8.911,10.201-13.082,15.513c-1.215,1.558-2.441,3.111-3.691,4.643c-4.134,5.067-3.92,4.668-3.923,4.689
		c0.44-6.664,2.601-13.194,4.909-19.409c2.379-6.405,5.401-13.089,9.616-18.512C49.516,18.8,62.556,11.262,58.222,4.756
		c-0.758-1.078-1.619-0.183-2.586,0.704c-0.961,0.886-0.961,0.886-0.961,0.886s-6.968,7.982-13.358,11.937
		c-4.514,3.449-10.099,5.833-15.188,8.277c-5.93,2.847-11.89,5.7-18.057,7.987C6.87,34.994,5.5,35.206,4.524,35.92z"/>
</g>
<g id="contorno">
	<g>
		<path class="st1" d="M128.434,29.93v30.463h-5.62l-9.202-20.285v20.285h-3.911V32.78c-1.249,0.6-2.212,1.44-2.889,2.526
			c-0.679,1.088-1.019,2.444-1.019,4.071c0,0.869,0.053,1.583,0.163,2.138c0.107,0.56,0.237,1.01,0.387,1.365
			c0.148,0.354,0.306,0.645,0.469,0.873c0.161,0.234,0.311,0.446,0.446,0.635c-1.791,0-3.136-0.412-4.031-1.246
			c-0.896-0.822-1.344-2.215-1.344-4.169c0-1.114,0.217-2.214,0.651-3.302c0.436-1.085,1.079-2.063,1.935-2.93
			c0.854-0.868,1.934-1.565,3.237-2.097c1.302-0.531,2.822-0.793,4.561-0.793c0.326,0,0.746,0.025,1.263,0.08
			c0.515,0.057,1.085,0.22,1.71,0.488l9.487,21.584V29.93H128.434z M134.989,37.829c0.897,0,1.663-0.312,2.3-0.936
			c0.638-0.623,0.958-1.386,0.958-2.28c0-0.896-0.32-1.662-0.958-2.301c-0.637-0.637-1.403-0.954-2.3-0.954
			c-0.896,0-1.656,0.316-2.28,0.954c-0.624,0.64-0.937,1.405-0.937,2.301c0,0.895,0.313,1.657,0.937,2.28
			C133.333,37.518,134.094,37.829,134.989,37.829z M156.591,42.166c-0.176-0.417-0.419-0.807-0.732-1.16
			c-0.311-0.354-0.68-0.638-1.098-0.854c-0.421-0.22-0.891-0.324-1.405-0.324c-0.87,0-1.67,0.277-2.403,0.833
			c-0.733,0.558-1.398,1.19-1.995,1.894v-2.524h-5.864v13.075c-0.08,1.028-0.386,1.885-0.915,2.564
			c-0.53,0.681-1.188,1.017-1.975,1.017c-0.789,0-1.337-0.183-1.65-0.554c-0.313-0.365-0.468-1.12-0.468-2.256V40.029h-5.863v14.292
			c0,1.902,0.421,3.428,1.261,4.586c0.842,1.149,2.308,1.726,4.4,1.726c0.541,0,1.167-0.079,1.873-0.239
			c0.705-0.166,1.397-0.509,2.076-1.04c0.453-0.354,0.871-0.818,1.262-1.376v2.416h5.864V44.919c0.434-0.463,0.85-0.852,1.242-1.166
			c0.395-0.308,0.794-0.468,1.201-0.468c0.38,0,0.644,0.137,0.794,0.406c0.15,0.273,0.291,0.57,0.428,0.879
			c0.134,0.313,0.324,0.605,0.568,0.879c0.246,0.27,0.678,0.4,1.304,0.4c0.841,0,1.446-0.245,1.812-0.748
			c0.367-0.502,0.55-1.057,0.55-1.651C156.856,43.018,156.769,42.588,156.591,42.166z M169.072,39.219
			c1.384,0,2.384,0.673,2.992,2.032c0.611,1.359,0.917,3.228,0.917,5.622c0,1.548-0.134,3.136-0.409,4.764
			c-0.268,1.628-0.731,3.106-1.382,4.438c-0.651,1.331-1.513,2.422-2.586,3.278c-1.072,0.852-2.41,1.279-4.011,1.279
			c-1.956,0-3.475-0.61-4.562-1.834c-1.085-1.217-1.626-2.861-1.626-4.923V40.029h5.862v13.847c0,0.976,0.135,1.69,0.407,2.136
			c0.271,0.451,0.719,0.674,1.344,0.674c0.787,0,1.465-0.313,2.036-0.942c0.57-0.617,1.039-1.422,1.406-2.399
			c0.367-0.976,0.638-2.062,0.813-3.256c0.177-1.193,0.266-2.365,0.266-3.501c0-1.251-0.11-2.416-0.327-3.502
			c-0.054,0.138-0.23,0.239-0.528,0.303c-0.3,0.069-0.53,0.104-0.693,0.104c-0.298,0-0.564-0.081-0.795-0.246
			c-0.229-0.16-0.434-0.371-0.611-0.628c-0.174-0.258-0.311-0.537-0.405-0.834c-0.095-0.298-0.143-0.583-0.143-0.856
			c0-0.489,0.168-0.897,0.508-1.223C167.884,39.377,168.394,39.219,169.072,39.219z M236.139,56.686
			c-0.789,0-1.337-0.183-1.648-0.554c-0.312-0.365-0.468-1.12-0.468-2.256V40.029h-5.864v1.954c-0.163-0.486-0.395-0.874-0.694-1.16
			c-0.297-0.286-0.622-0.503-0.977-0.651c-0.351-0.148-0.72-0.246-1.101-0.285c-0.379-0.041-0.73-0.06-1.057-0.06
			c-1.413,0-2.612,0.358-3.604,1.075c-0.991,0.721-1.793,1.64-2.405,2.748c-0.611,1.12-1.057,2.337-1.342,3.667
			c-0.286,1.331-0.428,2.622-0.428,3.868c0,1.272,0.113,2.397,0.333,3.381c-0.143,0.407-0.3,0.776-0.477,1.103
			c-0.365,0.681-1.012,1.017-1.931,1.017c-0.843,0-1.389-0.291-1.632-0.879c-0.241-0.577-0.365-1.457-0.365-2.622
			c0-0.354,0.009-0.789,0.021-1.303c0.011-0.521,0.034-1.045,0.063-1.588c0.023-0.548,0.046-1.08,0.061-1.611
			c0.014-0.53,0.021-0.971,0.021-1.325c0-1.41-0.152-2.599-0.452-3.564c-0.303-0.96-0.72-1.735-1.251-2.318
			c-0.534-0.583-1.148-0.997-1.845-1.239c-0.697-0.246-1.429-0.365-2.193-0.365c-0.705,0-1.448,0.14-2.234,0.421
			c-0.784,0.289-1.487,0.909-2.107,1.857l-0.018-2.119h-5.863v14.659c-0.145,0.356-0.323,0.688-0.552,0.98
			c-0.525,0.681-1.185,1.017-1.973,1.017c-0.785,0-1.337-0.183-1.648-0.554c-0.314-0.365-0.469-1.12-0.469-2.256V40.029h-5.863
			v1.954c-0.163-0.486-0.397-0.874-0.694-1.16c-0.296-0.286-0.622-0.503-0.977-0.651c-0.354-0.148-0.72-0.246-1.1-0.285
			c-0.38-0.041-0.734-0.06-1.06-0.06c-1.411,0-2.611,0.358-3.604,1.075c-0.988,0.721-1.791,1.64-2.402,2.748
			c-0.608,1.12-1.057,2.337-1.345,3.667c-0.283,1.331-0.423,2.622-0.423,3.868c0,1.765,0.208,3.256,0.628,4.461
			c0.423,1.211,0.977,2.177,1.668,2.913c0.697,0.73,1.459,1.256,2.302,1.589c0.843,0.324,1.697,0.484,2.565,0.484
			c0.737,0,1.376-0.108,1.937-0.326c0.554-0.217,1.045-0.496,1.465-0.85c0.419-0.354,0.78-0.76,1.077-1.206
			c0.3-0.445,0.56-0.902,0.777-1.365c0.297,1.172,0.822,2.085,1.565,2.754c0.748,0.662,1.839,0.993,3.279,0.993
			c0.542,0,1.167-0.079,1.874-0.239c0.708-0.166,1.399-0.509,2.079-1.04c0.313-0.245,0.609-0.545,0.894-0.889v1.929h5.863V47.317
			c0.029-0.462,0.095-0.92,0.207-1.364c0.108-0.446,0.257-0.847,0.444-1.2c0.191-0.354,0.429-0.634,0.714-0.856
			c0.286-0.217,0.629-0.326,1.037-0.326c0.678,0,1.203,0.349,1.568,1.04c0.366,0.696,0.549,1.851,0.549,3.484
			c0,0.269-0.006,0.628-0.018,1.079c-0.018,0.446-0.022,0.914-0.022,1.4c0,0.491-0.007,0.959-0.018,1.404
			c-0.017,0.446-0.023,0.795-0.023,1.041c0,2.307,0.474,4.152,1.417,5.54c0.942,1.382,2.468,2.073,4.57,2.073
			c0.597,0,1.208-0.085,1.833-0.263c0.623-0.177,1.206-0.525,1.749-1.063c0.5-0.481,0.948-1.17,1.355-2.046
			c0.28,0.492,0.596,0.925,0.945,1.298c0.691,0.73,1.457,1.256,2.303,1.589c0.84,0.324,1.696,0.484,2.564,0.484
			c0.731,0,1.376-0.108,1.931-0.326c0.561-0.217,1.048-0.496,1.469-0.85c0.422-0.354,0.782-0.76,1.079-1.206
			c0.297-0.445,0.557-0.902,0.771-1.365c0.275,1.143,0.764,2.051,1.469,2.73c0.708,0.68,1.736,1.017,3.096,1.017
			c1.141,0,1.934-0.302,2.382-0.919c0.446-0.606,0.794-1.674,1.04-3.193C236.738,56.629,236.467,56.686,236.139,56.686z
			 M186.176,53.104c0,0.594-0.083,1.12-0.246,1.564c-0.162,0.446-0.374,0.823-0.631,1.12s-0.543,0.52-0.857,0.674
			c-0.311,0.148-0.617,0.223-0.914,0.223c-0.246,0-0.542-0.034-0.896-0.102c-0.354-0.069-0.686-0.286-0.997-0.651
			c-0.311-0.366-0.58-0.948-0.793-1.755c-0.22-0.8-0.326-1.919-0.326-3.357c0-0.898,0.065-1.841,0.203-2.828
			c0.137-0.995,0.345-1.903,0.631-2.73c0.285-0.829,0.666-1.521,1.139-2.079c0.474-0.555,1.04-0.834,1.691-0.834
			c0.326,0,0.611,0.063,0.857,0.183c0.243,0.126,0.445,0.274,0.608,0.451c0.163,0.177,0.285,0.354,0.369,0.526
			c0.08,0.183,0.134,0.318,0.163,0.433V53.104z M228.158,53.139c0,0.605-0.083,1.113-0.246,1.554
			c-0.159,0.434-0.371,0.8-0.631,1.097c-0.257,0.297-0.54,0.52-0.854,0.674c-0.315,0.148-0.617,0.223-0.917,0.223
			c-0.243,0-0.546-0.034-0.895-0.102c-0.354-0.069-0.688-0.286-0.999-0.651c-0.312-0.366-0.577-0.948-0.795-1.755
			c-0.216-0.8-0.324-1.919-0.324-3.357c0-0.898,0.067-1.841,0.205-2.828c0.131-0.995,0.343-1.903,0.628-2.73
			c0.286-0.829,0.666-1.521,1.143-2.079c0.474-0.555,1.037-0.834,1.688-0.834c0.325,0,0.603,0.063,0.836,0.183
			c0.229,0.126,0.43,0.269,0.589,0.428c0.166,0.166,0.285,0.338,0.366,0.509c0.085,0.177,0.148,0.325,0.205,0.429V53.139z
			 M259.309,33.717c-0.565,0.383-1.058,1.086-1.478,2.12c-0.417,1.027-0.766,2.21-1.049,3.54c-0.286,1.332-0.494,2.729-0.627,4.193
			c-0.135,1.466-0.203,2.854-0.203,4.156c0,1.953,0.144,3.544,0.43,4.764c0.283,1.223,0.636,2.17,1.059,2.851
			c0.419,0.68,0.867,1.131,1.342,1.365c0.477,0.228,0.902,0.345,1.285,0.345c0.813,0,1.524-0.374,2.136-1.118
			c0.611-0.749,1.126-1.746,1.547-2.997c0.421-1.248,0.734-2.676,0.937-4.296c0.204-1.613,0.307-3.29,0.307-5.029
			c0-2.468-0.198-4.478-0.592-6.023c-0.392-1.551-0.929-2.757-1.607-3.627c-0.679-0.865-1.474-1.448-2.383-1.751
			c-0.91-0.297-1.865-0.446-2.871-0.446c-1.302,0-2.539,0.196-3.705,0.589c-1.167,0.394-2.187,0.972-3.054,1.731
			c-0.87,0.76-1.557,1.696-2.057,2.811c-0.504,1.113-0.755,2.376-0.755,3.787c0,1.005,0.11,1.77,0.323,2.302
			c0.218,0.528,0.474,1.009,0.771,1.445c-1.545,0-2.757-0.349-3.639-1.04c-0.883-0.691-1.322-1.796-1.322-3.318
			c0-1.385,0.374-2.693,1.12-3.93c0.744-1.233,1.753-2.314,3.027-3.236c1.273-0.923,2.771-1.657,4.493-2.199
			c1.722-0.546,3.557-0.814,5.508-0.814c2.357,0,4.336,0.395,5.936,1.18c1.6,0.786,2.873,1.86,3.824,3.219
			c0.948,1.357,1.625,2.93,2.033,4.723c0.406,1.789,0.61,3.677,0.61,5.658c0,1.196-0.07,2.419-0.204,3.665
			c-0.139,1.251-0.374,2.461-0.714,3.644c-0.337,1.183-0.777,2.3-1.318,3.362c-0.543,1.059-1.22,1.982-2.032,2.771
			c-0.813,0.785-1.774,1.411-2.884,1.87c-1.113,0.463-2.387,0.694-3.824,0.694c-1.299,0-2.54-0.22-3.718-0.651
			c-1.178-0.437-2.222-1.153-3.128-2.158c-0.909-1.007-1.628-2.328-2.153-3.971c-0.529-1.643-0.794-3.688-0.794-6.13
			c0-1.468,0.113-3.042,0.346-4.724c0.23-1.683,0.63-3.235,1.2-4.664c0.567-1.422,1.326-2.61,2.271-3.564
			c0.948-0.948,2.129-1.422,3.535-1.422c0.299,0,0.623,0.021,0.977,0.063C258.564,33.491,258.93,33.579,259.309,33.717z
			 M279.571,40.069v2.524c0.596-0.705,1.261-1.336,1.996-1.894c0.731-0.558,1.53-0.834,2.4-0.834c0.517,0,0.982,0.108,1.404,0.326
			c0.421,0.219,0.786,0.502,1.101,0.854c0.312,0.354,0.556,0.739,0.731,1.159c0.176,0.426,0.264,0.852,0.264,1.286
			c0,0.597-0.181,1.147-0.546,1.647c-0.366,0.506-0.973,0.754-1.814,0.754c-0.623,0-1.059-0.135-1.302-0.405
			c-0.244-0.274-0.435-0.565-0.573-0.877c-0.135-0.311-0.277-0.605-0.426-0.877c-0.147-0.268-0.416-0.405-0.795-0.405
			c-0.407,0-0.806,0.154-1.201,0.465c-0.391,0.312-0.807,0.703-1.239,1.165v15.473h-5.863V40.069H279.571z M378.12,40.069v13.072
			c-0.083,1.031-0.344,1.888-0.777,2.564c-0.437,0.68-1.017,1.018-1.75,1.018c-0.541,0-0.958-0.209-1.24-0.631
			c-0.288-0.421-0.432-1.149-0.432-2.181V40.069h-5.86v14.295c0,0.111,0.016,0.209,0.019,0.318c-0.147,0.375-0.333,0.72-0.57,1.023
			c-0.527,0.68-1.188,1.018-1.973,1.018c-0.792,0-1.34-0.181-1.651-0.549c-0.311-0.368-0.468-1.12-0.468-2.263V40.069h-5.863v1.953
			c-0.167-0.488-0.395-0.874-0.691-1.159c-0.3-0.286-0.626-0.503-0.98-0.651c-0.352-0.148-0.717-0.245-1.097-0.286
			c-0.383-0.039-0.737-0.06-1.063-0.06c-1.41,0-2.613,0.362-3.602,1.076c-0.991,0.721-1.79,1.638-2.402,2.751
			c-0.61,1.113-1.059,2.333-1.341,3.664c-0.29,1.331-0.433,2.622-0.433,3.871c0,1.53,0.17,2.841,0.486,3.954
			c-0.103,0.185-0.216,0.36-0.344,0.523c-0.527,0.68-1.186,1.018-1.973,1.018c-0.792,0-1.337-0.181-1.651-0.549
			c-0.311-0.368-0.468-1.12-0.468-2.263V31.926l-5.863,0.814v9.282c-0.164-0.488-0.395-0.874-0.694-1.159
			c-0.297-0.286-0.626-0.503-0.978-0.651s-0.717-0.245-1.097-0.286c-0.379-0.039-0.733-0.06-1.06-0.06
			c-1.413,0-2.616,0.362-3.604,1.076c-0.991,0.721-1.79,1.638-2.402,2.751c-0.61,1.113-1.059,2.333-1.341,3.664
			c-0.29,1.331-0.433,2.622-0.433,3.871c0,1.271,0.114,2.394,0.334,3.377c-0.141,0.407-0.298,0.775-0.474,1.101
			c-0.369,0.68-1.014,1.018-1.934,1.018c-0.845,0-1.388-0.292-1.631-0.874c-0.245-0.583-0.369-1.46-0.369-2.625
			c0-0.352,0.009-0.789,0.024-1.305c0.014-0.516,0.031-1.046,0.059-1.589c0.026-0.543,0.047-1.076,0.061-1.605
			c0.015-0.534,0.022-0.971,0.022-1.325c0-1.417-0.153-2.602-0.45-3.564c-0.3-0.965-0.721-1.735-1.251-2.321
			c-0.534-0.583-1.148-0.997-1.849-1.243c-0.697-0.242-1.425-0.365-2.193-0.365c-0.702,0-1.444,0.143-2.233,0.426
			c-0.783,0.286-1.485,0.905-2.105,1.856l-0.021-2.119h-5.86v13.072c-0.382,0.571-0.775,1.105-1.182,1.608
			c-0.409,0.502-0.854,0.937-1.343,1.302c-0.491,0.365-1.045,0.663-1.671,0.874c-0.625,0.217-1.342,0.328-2.159,0.328
			c-1.465,0-2.49-0.388-3.073-1.161c-0.585-0.772-0.888-2.068-0.917-3.889c1.006-0.054,1.988-0.248,2.954-0.588
			c0.962-0.34,1.818-0.831,2.564-1.471c0.745-0.637,1.343-1.414,1.793-2.337c0.446-0.925,0.669-1.999,0.669-3.221
			c0-0.218-0.031-0.583-0.103-1.097c-0.063-0.518-0.269-1.046-0.608-1.589c-0.341-0.543-0.863-1.019-1.565-1.428
			c-0.708-0.405-1.714-0.608-3.016-0.608c-1.708,0-3.123,0.38-4.236,1.14c-1.11,0.76-1.993,1.711-2.645,2.851
			s-1.109,2.382-1.363,3.727c-0.259,1.343-0.391,2.603-0.391,3.765c0,1.656,0.2,3.073,0.59,4.256
			c0.399,1.183,0.953,2.147,1.673,2.894c0.719,0.745,1.567,1.293,2.544,1.645c0.978,0.354,2.052,0.534,3.217,0.534
			c1.386,0,2.59-0.22,3.627-0.651c1.028-0.437,1.931-1.005,2.707-1.71c0.764-0.701,1.408-1.492,1.934-2.373v4.489h5.86V47.357
			c0.029-0.462,0.099-0.917,0.207-1.361c0.108-0.452,0.257-0.849,0.448-1.203c0.188-0.352,0.429-0.635,0.712-0.854
			c0.284-0.221,0.633-0.329,1.039-0.329c0.676,0,1.199,0.349,1.567,1.043c0.366,0.691,0.549,1.851,0.549,3.481
			c0,0.269-0.006,0.629-0.021,1.077c-0.014,0.448-0.021,0.917-0.021,1.405c0,0.487-0.005,0.956-0.019,1.402
			c-0.015,0.448-0.021,0.797-0.021,1.039c0,2.309,0.472,4.152,1.413,5.538c0.946,1.385,2.468,2.079,4.57,2.079
			c0.597,0,1.209-0.088,1.834-0.266c0.625-0.174,1.208-0.528,1.75-1.06c0.501-0.487,0.949-1.172,1.357-2.05
			c0.28,0.493,0.596,0.926,0.945,1.296c0.694,0.734,1.46,1.262,2.303,1.588c0.839,0.329,1.692,0.491,2.564,0.491
			c0.73,0,1.376-0.111,1.933-0.328c0.558-0.215,1.046-0.5,1.468-0.851c0.418-0.357,0.781-0.757,1.077-1.206
			c0.297-0.448,0.558-0.902,0.777-1.365c0.297,1.171,0.822,2.088,1.565,2.75c0.745,0.666,1.839,1,3.278,1
			c0.543,0,1.165-0.086,1.874-0.245c0.702-0.163,1.396-0.509,2.073-1.037c0.601-0.471,1.146-1.131,1.642-1.964
			c0.261,0.438,0.547,0.831,0.866,1.167c0.691,0.734,1.46,1.262,2.301,1.588c0.841,0.329,1.694,0.491,2.566,0.491
			c0.73,0,1.376-0.111,1.933-0.328c0.557-0.215,1.046-0.5,1.465-0.851c0.424-0.357,0.78-0.757,1.08-1.206
			c0.297-0.448,0.558-0.902,0.774-1.365c0.3,1.171,0.822,2.088,1.568,2.75c0.745,0.666,1.839,1,3.278,1
			c0.543,0,1.165-0.086,1.874-0.245c0.702-0.163,1.396-0.509,2.076-1.037c0.537-0.422,1.032-0.994,1.485-1.708
			c0.189,0.465,0.407,0.902,0.69,1.28c0.856,1.14,2.248,1.71,4.176,1.71c0.352,0,0.726-0.028,1.119-0.086
			c0.392-0.054,0.786-0.159,1.183-0.322c0.393-0.162,0.789-0.395,1.184-0.694c0.391-0.297,0.762-0.702,1.119-1.22v2.236
			c-0.68,0.217-1.345,0.482-2,0.798c-0.647,0.311-1.236,0.685-1.747,1.119c-0.518,0.434-0.935,0.945-1.243,1.528
			c-0.313,0.582-0.469,1.242-0.469,1.976c0,0.706,0.149,1.343,0.446,1.914c0.303,0.567,0.7,1.048,1.203,1.442
			c0.502,0.394,1.096,0.702,1.79,0.916c0.693,0.218,1.432,0.329,2.219,0.329c0.626,0,1.271-0.088,1.935-0.266
			c0.668-0.174,1.278-0.517,1.833-1.02c0.557-0.502,1.011-1.205,1.365-2.117c0.352-0.908,0.531-2.084,0.531-3.521V40.069H378.12z
			 M294.656,47.13c0.174-1,0.41-1.872,0.694-2.616c0.284-0.74,0.613-1.331,0.996-1.78c0.38-0.445,0.802-0.671,1.262-0.671
			c0.378,0,0.734,0.2,1.057,0.591c0.329,0.392,0.491,1.061,0.491,2.003c0,0.759-0.126,1.459-0.367,2.108
			c-0.243,0.647-0.583,1.222-1.017,1.722c-0.435,0.5-0.952,0.908-1.549,1.217c-0.598,0.311-1.236,0.493-1.914,0.545
			C294.364,49.169,294.479,48.129,294.656,47.13z M336.133,53.142c0,0.597-0.083,1.119-0.243,1.568
			c-0.166,0.445-0.377,0.819-0.631,1.119c-0.261,0.297-0.546,0.522-0.858,0.671c-0.311,0.149-0.619,0.224-0.915,0.224
			c-0.243,0-0.541-0.035-0.895-0.104c-0.354-0.063-0.688-0.282-1-0.648c-0.313-0.368-0.577-0.951-0.794-1.751
			c-0.218-0.802-0.326-1.925-0.326-3.361c0-0.897,0.069-1.839,0.207-2.828c0.134-0.991,0.345-1.901,0.627-2.729
			c0.286-0.826,0.666-1.52,1.143-2.077c0.475-0.554,1.038-0.836,1.688-0.836c0.325,0,0.611,0.062,0.857,0.186
			c0.242,0.122,0.445,0.271,0.607,0.448c0.166,0.174,0.289,0.352,0.368,0.527c0.081,0.178,0.135,0.32,0.164,0.433V53.142z
			 M357.554,53.142c0,0.597-0.083,1.119-0.246,1.568c-0.163,0.445-0.371,0.819-0.628,1.119c-0.261,0.297-0.546,0.522-0.858,0.671
			c-0.311,0.149-0.616,0.224-0.916,0.224c-0.242,0-0.542-0.035-0.894-0.104c-0.357-0.063-0.689-0.282-1-0.648
			c-0.312-0.368-0.577-0.951-0.794-1.751c-0.22-0.802-0.326-1.925-0.326-3.361c0-0.897,0.069-1.839,0.203-2.828
			c0.138-0.991,0.349-1.901,0.635-2.729c0.282-0.826,0.662-1.52,1.136-2.077c0.48-0.554,1.04-0.836,1.691-0.836
			c0.325,0,0.611,0.062,0.854,0.186c0.242,0.122,0.451,0.271,0.61,0.448c0.165,0.174,0.286,0.352,0.365,0.527
			c0.084,0.178,0.138,0.32,0.167,0.433V53.142z M378.12,63.81c0,1.222-0.152,2.134-0.448,2.729c-0.3,0.597-0.694,0.896-1.186,0.896
			c-0.38,0-0.752-0.162-1.119-0.487c-0.366-0.329-0.546-0.763-0.546-1.306c0-0.654,0.316-1.223,0.954-1.711
			c0.637-0.488,1.419-0.922,2.345-1.302V63.81z"/>
		<path class="st1" d="M4.524,35.92c-0.465,0.343-0.844,0.797-1.073,1.443c-0.618,1.75-0.646,4.611,1.78,4.795
			c1.031,0.074,23.735-8.451,33.425-15.107c-3.962,5.156-12.3,31.052-11.009,43.024c0.229,2.708,1.645,3.045,2.103,2.63
			c0.458-0.418,2.984-4.337,2.984-4.337S53.97,38.64,63.364,33.502c3.635-2.753,18.816-9.896,24.102,3.044
			c1.242,3.472,1.894,22.101-13.425,30.924c-1.95,1.142-12.292,4.324-14.467-5.173c-1.248-2.82,2.515-12.819,14.567-13.578
			c1.089,0.372-0.075,2.396-5.001,4.297c-1.348,0.901-1.51,7.978,2.015,5.909c2.992-1.102,11.971-7.544,4.568-16.14
			c-1.18-1.376-5.31-0.668-11.02,2.053c-5.716,2.724-14.398,16.576-3.208,28.747c3.716,3.238,23.693,6.455,30.02-26.894
			c0.883-4.655,0.144-9.837-1.51-14.219c-2.24-5.945-6.415-10.425-13.204-9.731c-9.734,1-17.612,6.553-24.351,13.3
			c-4.785,4.788-8.911,10.201-13.082,15.513c-1.215,1.558-2.441,3.111-3.691,4.643c-4.134,5.067-3.92,4.668-3.923,4.689
			c0.44-6.664,2.601-13.194,4.909-19.409c2.379-6.405,5.401-13.089,9.616-18.512C49.516,18.8,62.556,11.262,58.222,4.756
			c-0.758-1.078-1.619-0.183-2.586,0.704c-0.961,0.886-0.961,0.886-0.961,0.886s-6.968,7.982-13.358,11.937
			c-4.514,3.449-10.099,5.833-15.188,8.277c-5.93,2.847-11.89,5.7-18.057,7.987C6.87,34.994,5.5,35.206,4.524,35.92z"/>
	</g>
</g>
</svg>
