<?xml version="1.0" encoding="utf-8"?>
<!-- Generator: Adobe Illustrator 23.0.2, SVG Export Plug-In . SVG Version: 6.00 Build 0)  -->
<svg version="1.1" xmlns="http://www.w3.org/2000/svg" xmlns:xlink="http://www.w3.org/1999/xlink" x="0px" y="0px"
	 viewBox="0 0 400 80" style="enable-background:new 0 0 400 80;" xml:space="preserve">
<style type="text/css">
	.st0{fill:transparent;
				-webkit-animation: color15 2s forwards 8.5s;
			-moz-animation: color15 2s forwards 8.5s;
			-o-animation: color15 2s forwards 8.5s;
			animation: color15 2s forwards 8.5s;
	}
	.st1{fill:transparent;
	
				-webkit-animation: color14 2s forwards 8.25s;
			-moz-animation: color14 2s forwards 8.25s;
			-o-animation: color14 2s forwards 8.25s;
			animation: color14 2s forwards 8.25s;
			}
	.st2{fill:transparent;
	
				-webkit-animation: color13 2s forwards 8s;
			-moz-animation: color13 2s forwards 8s;
			-o-animation: color13 2s forwards 8s;
			animation: color13 2s forwards 8s;
			}
	.st3{fill:transparent;
				-webkit-animation: color12 2s forwards 7.75s;
			-moz-animation: color12 2s forwards 7.75s;
			-o-animation: color12 2s forwards 7.75;
			animation: color12 2s forwards 7.75s;
	}
	.st4{fill:transparent;
				-webkit-animation: color11 2s forwards 7.5s;
			-moz-animation: color11 2s forwards 7.5s;
			-o-animation: color11 2s forwards 7.5s;
			animation: color11 2s forwards 7.5s;
	}
	.st5{fill:transparent;
				-webkit-animation: color10 2s forwards 7.25s;
			-moz-animation: color10 2s forwards 7.25s;
			-o-animation: color10 2s forwards 7.25s;
			animation: color10 2s forwards 7.25s;
	}
	.st6{fill:transparent;
				-webkit-animation: color9 2s forwards 7s;
			-moz-animation: color9 2s forwards 7s;
			-o-animation: color9 2s forwards 7s;
			animation: color9 2s forwards 7s;
	}
	.st7{fill:transparent;
				-webkit-animation: color8 2s forwards 6.75s;
			-moz-animation: color8 2s forwards 6.75s;
			-o-animation: color8 2s forwards 6.75s;
			animation: color8 2s forwards 6.75s;
	}
	.st8{fill:transparent;
				-webkit-animation: color7 2s forwards 6.5s;
			-moz-animation: color7 2s forwards 6.5s;
			-o-animation: color7 2s forwards 6.5s;
			animation: color7 2s forwards 6.5s;
	}
	.st9{fill:transparent;
				-webkit-animation: color6 2s forwards 6.25s;
			-moz-animation: color6 2s forwards 6.25s;
			-o-animation: color6 2s forwards 6.25s;
			animation: color6 2s forwards 6.25s;
	}
	.st10{fill:transparent;
				-webkit-animation: color5 2s forwards 6s;
			-moz-animation: color5 2s forwards 6s;
			-o-animation: color5 2s forwards 6s;
			animation: color5 2s forwards 6s;
	}
	.st11{fill:transparent;
				-webkit-animation: color4 2s forwards 5.75s;
			-moz-animation: color4 2s forwards 5.75s;
			-o-animation: color4 2s forwards 5.75s;
			animation: color4 2s forwards 5.75s;
	}
	.st12{fill:transparent;
				-webkit-animation: color3 2s forwards 5.5s;
			-moz-animation: color3 2s forwards 5.5s;
			-o-animation: color3 2s forwards 5.5s;
			animation: color3 2s forwards 5.5s;
	}
	.st13{fill:transparent;
				-webkit-animation: color2 2s forwards 5.25s;
			-moz-animation: color2 2s forwards 5.25s;
			-o-animation: color2 2s forwards 5.25s;
			animation: color2 2s forwards 5.25s;
	}
	.st14{fill:transparent;
			-webkit-animation: color1 2s forwards 5s;
			-moz-animation: color1 2s forwards 5s;
			-o-animation: color1 2s forwards 5s;
			animation: color1 2s forwards 5s;
	}
	.st15{fill:transparent;
			-webkit-animation: nombre 5s forwards 4s;
			-moz-animation: nombre 5s forwards 4s;
			-o-animation: nombre 5s forwards 4s;
			animation: nombre 5s forwards 4s;
	}
	.st16{fill:none;
	stroke:#f2f2f2;
	stroke-dasharray: 600;
	stroke-dashoffset: 0;
	stroke-miterlimit:10;
		-webkit-animation: contorno 10s forwards;
		-moz-animation: contorno 10s forwards;
		-o-animation: contorno 10s forwards;
		animation: contorno 10s forwards;
	}
	@-webkit-keyframes contorno {
			0% {
				stroke-dashoffset: 600;
			}
			90% {
				stroke: #f2f2f2;
			}

			100% {
				stroke-dashoffset: 0;
				stroke: transparent;
			}
		}

		@-keyframes contorno {
			0% {
				stroke-dashoffset: 600;
			}
			90% {
				stroke: #525252;
			}

			100% {
				stroke-dashoffset: 0;
				stroke: transparent;
			}
		}
		@-webkit-keyframes nombre {
			from {
				fill: transparent;
			}

			to {
				fill: #f2f2f2;
			}
		}

		@-keyframes nombre {
			from {
				fill: transparent;
			}

			to {
				fill: #f2f2f2;
			}
		}
		@-webkit-keyframes color1 {
			from {
				fill: transparent;
			}

			to {
				fill: #6E0D66;
			}
		}

		@-keyframes color1 {
			from {
				fill: transparent;
			}

			to {
				fill:#6E0D66;
			}
		}
		@-webkit-keyframes color2 {
			from {
				fill: transparent;
			}

			to {
				fill: #791565;
			}
		}

		@-keyframes color2 {
			from {
				fill: transparent;
			}

			to {
				fill:#791565;
			}
		}
		@-webkit-keyframes color3 {
			from {
				fill: transparent;
			}

			to {
				fill: #8B2263;
			}
		}

		@-keyframes color3 {
			from {
				fill: transparent;
			}

			to {
				fill:#8B2263;
			}
		}
		@-webkit-keyframes color4 {
			from {
				fill: transparent;
			}

			to {
				fill: #A12A65;
			}
		}

		@-keyframes color4 {
			from {
				fill: transparent;
			}

			to {
				fill: #A12A65;
			}
		}
		@-webkit-keyframes color5 {
			from {
				fill: transparent;
			}

			to {
				fill: #A73760;
			}
		}

		@-keyframes color5 {
			from {
				fill: transparent;
			}

			to {
				fill:#A73760;
			}
		}
		@-webkit-keyframes color6 {
			from {
				fill: transparent;
			}

			to {
				fill: #b5425f;
			}
		}

		@-keyframes color6 {
			from {
				fill: transparent;
			}

			to {
				fill:#b5425f;
			}
		}
		@-webkit-keyframes color7 {
			from {
				fill: transparent;
			}

			to {
				fill: #be495e;
			}
		}

		@-keyframes color7 {
			from {
				fill: transparent;
			}

			to {
				fill:#be495e;
			}
		}
		@-webkit-keyframes color8 {
			from {
				fill: transparent;
			}

			to {
				fill: #cb525d;
			}
		}

		@-keyframes color8 {
			from {
				fill: transparent;
			}

			to {
				fill:#cb525d;
			}
		}
		@-webkit-keyframes color9 {
			from {
				fill: transparent;
			}

			to {
				fill: #e5665a;
			}
		}

		@-keyframes color9 {
			from {
				fill: transparent;
			}

			to {
				fill:#e5665a;
			}
		}
		@-webkit-keyframes color10 {
			from {
				fill: transparent;
			}

			to {
				fill: #f37257;
			}
		}

		@-keyframes color10 {
			from {
				fill: transparent;
			}

			to {
				fill:#f37257;
			}
		}
		@-webkit-keyframes color11 {
			from {
				fill: transparent;
			}

			to {
				fill: #f37257;
			}
		}

		@-keyframes color11 {
			from {
				fill: transparent;
			}

			to {
				fill:#f37257;
			}
		}
		@-webkit-keyframes color12 {
			from {
				fill: transparent;
			}

			to {
				fill: #f5834b;
			}
		}

		@-keyframes color12 {
			from {
				fill: transparent;
			}

			to {
				fill:#f5834b;
			}
		}
		@-webkit-keyframes color13 {
			from {
				fill: transparent;
			}

			to {
				fill: #f9a133;
			}
		}

		@-keyframes color13 {
			from {
				fill: transparent;
			}

			to {
				fill:#f9a133;
			}
		}
		@-webkit-keyframes color14 {
			from {
				fill: transparent;
			}

			to {
				fill: #fcb524;
			}
		}

		@-keyframes color14 {
			from {
				fill: transparent;
			}

			to {
				fill:#fcb524;
			}
		}
		@-webkit-keyframes color15 {
			from {
				fill: transparent;
			}

			to {
				fill: #ffcd11;
			}
		}

		@-keyframes color15 {
			from {
				fill: transparent;
			}

			to {
				fill:#ffcd11;
			}
		}

</style>
<g id="isotipo">
	<path class="st0" d="M91.5,46.7c0.8-4.1,0.3-8.7-1-12.8L88,43.5c-0.2,3.7-1.1,8.3-3.3,12.7l-3.6,13.7
		C85.4,65.6,89.3,58.4,91.5,46.7z"/>
	<path class="st1" d="M73.6,74.6l2.2-8.2c4.2-2.8,7-6.5,8.9-10.2l-3.6,13.7C78.6,72.3,76,73.8,73.6,74.6z M90.5,33.9
		c-0.2-0.5-0.3-1-0.5-1.5c-0.9-2.4-2.1-4.5-3.7-6.2l-1.6,6c1.1,1.1,2,2.5,2.7,4.3c0.4,1.1,0.7,3.7,0.5,7L90.5,33.9z"/>
	<path class="st2" d="M86.3,26.2l-1.6,6c-1.6-1.6-3.5-2.5-5.5-2.9l1.7-6.3C83.1,23.5,84.8,24.7,86.3,26.2z M73.6,74.6l2.2-8.2
		c-0.6,0.4-1.1,0.7-1.7,1.1c-0.8,0.4-2.8,1.2-5.2,1.4l-1.7,6.6C69.1,75.6,71.3,75.4,73.6,74.6z"/>
	<path class="st2" d="M75.7,42.8l-1.6,5.9c0.5,0.2,0.5,0.9-0.5,1.7l-2.2,8.3C74.8,57.3,82.8,51.1,75.7,42.8z"/>
	<path class="st3" d="M73,29.4l1.7-6.4c0.7-0.1,1.4-0.2,2.1-0.3c1.5-0.2,2.9,0,4.1,0.3l-1.7,6.3C77.2,28.9,75.1,29,73,29.4z
		 M69.1,53c-1.3,0.9-1.5,8,2,5.9c0.1,0,0.2-0.1,0.4-0.2l2.2-8.3C72.9,51.2,71.4,52.1,69.1,53z M67.1,75.5l1.7-6.6
		c-2,0.2-4.1-0.1-5.9-1.2l-1.5,5.9c0,0,0,0,0.1,0.1C62.5,74.4,64.5,75.3,67.1,75.5z M69.5,42.9l-2,7.4c1.9-0.8,4-1.5,6.6-1.6
		c0,0,0,0,0,0l1.6-5.9c0,0,0,0,0,0C74.9,41.8,72.7,41.9,69.5,42.9z"/>
	<path class="st4" d="M68,25c2.1-0.9,4.4-1.6,6.7-2L73,29.4c-2.6,0.5-5,1.5-6.9,2.4L68,25z M63,67.6c-1.5-1-2.8-2.7-3.4-5.3
		c-1-2.2,1.2-8.8,8-12l2-7.4c-1.4,0.5-3,1.1-4.8,1.9c-0.8,0.4-1.6,0.9-2.4,1.7l-5.2,19.9c0.8,2.4,2.2,4.8,4.4,7.1L63,67.6z"/>
	<path class="st5" d="M62.3,46.5l-5.2,19.9C54.1,58.1,58.2,50.2,62.3,46.5z M66.2,31.8L68,25c-2.6,1.1-5,2.4-7.3,4l-2.1,8.2
		c1.8-1.7,3.4-3,4.8-3.7C64,33,65,32.4,66.2,31.8z"/>
	<path class="st6" d="M52.7,35.8l-2.8,10.6c3-3.5,6-6.7,8.6-9.2l2.1-8.2C57.8,31,55.2,33.3,52.7,35.8z"/>
	<path class="st7" d="M49.9,46.4c-3.2,3.8-6.4,7.8-9.2,11.3l3.1-11.8c2.7-3.4,5.6-6.8,8.7-9.9c0.1-0.1,0.1-0.1,0.2-0.2L49.9,46.4z
		 M58.2,4.8c-0.8-1.1-1.6-0.2-2.6,0.7c-1,0.9-1,0.9-1,0.9S54.4,6.6,54,7.1l-3,11.4C55.7,14.4,61.3,9.3,58.2,4.8z"/>
	<path class="st8" d="M54,7.1l-3,11.4c-2,1.7-3.8,3.2-4.7,4.4c-1.7,2.2-3.2,4.6-4.5,7l3.9-14.9C49.3,12.1,52.6,8.6,54,7.1z
		 M40.7,57.7l3.1-11.8c-1.5,1.9-3,3.7-4.4,5.6c-1.2,1.6-2.4,3.1-3.7,4.6c-0.4,0.5-0.8,1-1.2,1.5L31,71c0.8-1.2,1.8-2.7,1.8-2.7
		S36.1,63.7,40.7,57.7z"/>
	<path class="st9" d="M31.8,60.9c0.4-6.7,2.6-13.2,4.9-19.4c1.4-3.8,3.1-7.8,5.1-11.5l3.9-14.9c-1.4,1.2-2.9,2.3-4.4,3.2
		c-1,0.8-2.2,1.5-3.3,2.2l-2.2,8.3c1-0.6,2-1.2,2.8-1.8c-1.7,2.2-4.1,8-6.3,14.9l-3.3,12.5c-1.2,5.9-1.9,11.6-1.5,15.7
		c0.2,2.7,1.6,3,2.1,2.6c0.2-0.2,0.7-0.9,1.2-1.7l3.5-13.4C31.6,61.2,31.8,60.9,31.8,60.9z"/>
	<path class="st10" d="M28.6,32.7c2.6-1.3,5.1-2.6,7.2-3.8l2.2-8.3c-2.3,1.4-4.8,2.7-7.2,3.8L28.6,32.7z"/>
	<path class="st10" d="M32.4,41.9c-1.2,4-2.4,8.3-3.3,12.5L32.4,41.9z"/>
	<path class="st11" d="M28.6,32.7l2.2-8.3c-1.6,0.8-3.1,1.5-4.7,2.2c-0.8,0.4-1.6,0.8-2.4,1.2l-2.2,8.2
		C23.9,34.9,26.3,33.8,28.6,32.7z"/>
	<path class="st12" d="M14.5,38.8c2.2-0.9,4.5-1.9,7-2.9l2.2-8.2C21.3,28.8,19,30,16.6,31L14.5,38.8z"/>
	<path class="st13" d="M7.6,41.4c1.7-0.6,4.1-1.5,6.9-2.6l2.1-7.8c-2.3,1-4.6,2-7,2.9L7.6,41.4z"/>
	<path class="st14" d="M8.1,34.5c-1.2,0.4-2.6,0.7-3.5,1.4c-0.5,0.3-0.8,0.8-1.1,1.4c-0.6,1.8-0.6,4.6,1.8,4.8
		c0.2,0,1.1-0.2,2.4-0.7l2-7.5C9.1,34.1,8.6,34.4,8.1,34.5z"/>
</g>
<g id="nombre">
	<path class="st15" d="M128.3,30.2v30.5h-5.6l-9.2-20.3v20.3h-3.9V33.1c-1.2,0.6-2.2,1.4-2.9,2.5c-0.7,1.1-1,2.4-1,4.1
		c0,0.9,0.1,1.6,0.2,2.1c0.1,0.6,0.2,1,0.4,1.4c0.1,0.4,0.3,0.6,0.5,0.9c0.2,0.2,0.3,0.4,0.4,0.6c-1.8,0-3.1-0.4-4-1.2
		c-0.9-0.8-1.3-2.2-1.3-4.2c0-1.1,0.2-2.2,0.7-3.3c0.4-1.1,1.1-2.1,1.9-2.9c0.9-0.9,1.9-1.6,3.2-2.1c1.3-0.5,2.8-0.8,4.6-0.8
		c0.3,0,0.7,0,1.3,0.1c0.5,0.1,1.1,0.2,1.7,0.5l9.5,21.6V30.2H128.3z M134.8,38.1c0.9,0,1.7-0.3,2.3-0.9c0.6-0.6,1-1.4,1-2.3
		c0-0.9-0.3-1.7-1-2.3c-0.6-0.6-1.4-1-2.3-1c-0.9,0-1.7,0.3-2.3,1c-0.6,0.6-0.9,1.4-0.9,2.3c0,0.9,0.3,1.7,0.9,2.3
		C133.2,37.8,133.9,38.1,134.8,38.1z M156.4,42.5c-0.2-0.4-0.4-0.8-0.7-1.2c-0.3-0.4-0.7-0.6-1.1-0.9c-0.4-0.2-0.9-0.3-1.4-0.3
		c-0.9,0-1.7,0.3-2.4,0.8c-0.7,0.6-1.4,1.2-2,1.9v-2.5h-5.9v13.1c-0.1,1-0.4,1.9-0.9,2.6c-0.5,0.7-1.2,1-2,1c-0.8,0-1.3-0.2-1.6-0.6
		c-0.3-0.4-0.5-1.1-0.5-2.3V40.3h-5.9v14.3c0,1.9,0.4,3.4,1.3,4.6c0.8,1.1,2.3,1.7,4.4,1.7c0.5,0,1.2-0.1,1.9-0.2
		c0.7-0.2,1.4-0.5,2.1-1c0.5-0.4,0.9-0.8,1.3-1.4v2.4h5.9V45.2c0.4-0.5,0.8-0.9,1.2-1.2c0.4-0.3,0.8-0.5,1.2-0.5
		c0.4,0,0.6,0.1,0.8,0.4c0.1,0.3,0.3,0.6,0.4,0.9c0.1,0.3,0.3,0.6,0.6,0.9c0.2,0.3,0.7,0.4,1.3,0.4c0.8,0,1.4-0.2,1.8-0.7
		c0.4-0.5,0.5-1.1,0.5-1.7C156.7,43.3,156.6,42.9,156.4,42.5z M168.9,39.5c1.4,0,2.4,0.7,3,2c0.6,1.4,0.9,3.2,0.9,5.6
		c0,1.5-0.1,3.1-0.4,4.8c-0.3,1.6-0.7,3.1-1.4,4.4c-0.7,1.3-1.5,2.4-2.6,3.3c-1.1,0.9-2.4,1.3-4,1.3c-2,0-3.5-0.6-4.6-1.8
		c-1.1-1.2-1.6-2.9-1.6-4.9V40.3h5.9v13.8c0,1,0.1,1.7,0.4,2.1c0.3,0.5,0.7,0.7,1.3,0.7c0.8,0,1.5-0.3,2-0.9c0.6-0.6,1-1.4,1.4-2.4
		c0.4-1,0.6-2.1,0.8-3.3c0.2-1.2,0.3-2.4,0.3-3.5c0-1.3-0.1-2.4-0.3-3.5c-0.1,0.1-0.2,0.2-0.5,0.3c-0.3,0.1-0.5,0.1-0.7,0.1
		c-0.3,0-0.6-0.1-0.8-0.2c-0.2-0.2-0.4-0.4-0.6-0.6c-0.2-0.3-0.3-0.5-0.4-0.8c-0.1-0.3-0.1-0.6-0.1-0.9c0-0.5,0.2-0.9,0.5-1.2
		C167.7,39.7,168.2,39.5,168.9,39.5z M236,57c-0.8,0-1.3-0.2-1.6-0.6c-0.3-0.4-0.5-1.1-0.5-2.3V40.3H228v2c-0.2-0.5-0.4-0.9-0.7-1.2
		c-0.3-0.3-0.6-0.5-1-0.7c-0.4-0.1-0.7-0.2-1.1-0.3c-0.4,0-0.7-0.1-1.1-0.1c-1.4,0-2.6,0.4-3.6,1.1c-1,0.7-1.8,1.6-2.4,2.7
		c-0.6,1.1-1.1,2.3-1.3,3.7c-0.3,1.3-0.4,2.6-0.4,3.9c0,1.3,0.1,2.4,0.3,3.4c-0.1,0.4-0.3,0.8-0.5,1.1c-0.4,0.7-1,1-1.9,1
		c-0.8,0-1.4-0.3-1.6-0.9c-0.2-0.6-0.4-1.5-0.4-2.6c0-0.4,0-0.8,0-1.3c0-0.5,0-1,0.1-1.6c0-0.5,0-1.1,0.1-1.6c0-0.5,0-1,0-1.3
		c0-1.4-0.2-2.6-0.5-3.6c-0.3-1-0.7-1.7-1.3-2.3c-0.5-0.6-1.1-1-1.8-1.2c-0.7-0.2-1.4-0.4-2.2-0.4c-0.7,0-1.4,0.1-2.2,0.4
		c-0.8,0.3-1.5,0.9-2.1,1.9l0-2.1h-5.9V55c-0.1,0.4-0.3,0.7-0.6,1c-0.5,0.7-1.2,1-2,1c-0.8,0-1.3-0.2-1.6-0.6
		c-0.3-0.4-0.5-1.1-0.5-2.3V40.3H186v2c-0.2-0.5-0.4-0.9-0.7-1.2c-0.3-0.3-0.6-0.5-1-0.7c-0.4-0.1-0.7-0.2-1.1-0.3
		c-0.4,0-0.7-0.1-1.1-0.1c-1.4,0-2.6,0.4-3.6,1.1c-1,0.7-1.8,1.6-2.4,2.7c-0.6,1.1-1.1,2.3-1.3,3.7c-0.3,1.3-0.4,2.6-0.4,3.9
		c0,1.8,0.2,3.3,0.6,4.5c0.4,1.2,1,2.2,1.7,2.9c0.7,0.7,1.5,1.3,2.3,1.6c0.8,0.3,1.7,0.5,2.6,0.5c0.7,0,1.4-0.1,1.9-0.3
		c0.6-0.2,1-0.5,1.5-0.8c0.4-0.4,0.8-0.8,1.1-1.2c0.3-0.4,0.6-0.9,0.8-1.4c0.3,1.2,0.8,2.1,1.6,2.8c0.7,0.7,1.8,1,3.3,1
		c0.5,0,1.2-0.1,1.9-0.2c0.7-0.2,1.4-0.5,2.1-1c0.3-0.2,0.6-0.5,0.9-0.9v1.9h5.9V47.6c0-0.5,0.1-0.9,0.2-1.4
		c0.1-0.4,0.3-0.8,0.4-1.2c0.2-0.4,0.4-0.6,0.7-0.9c0.3-0.2,0.6-0.3,1-0.3c0.7,0,1.2,0.3,1.6,1c0.4,0.7,0.5,1.9,0.5,3.5
		c0,0.3,0,0.6,0,1.1c0,0.4,0,0.9,0,1.4c0,0.5,0,1,0,1.4c0,0.4,0,0.8,0,1c0,2.3,0.5,4.2,1.4,5.5c0.9,1.4,2.5,2.1,4.6,2.1
		c0.6,0,1.2-0.1,1.8-0.3c0.6-0.2,1.2-0.5,1.7-1.1c0.5-0.5,0.9-1.2,1.4-2c0.3,0.5,0.6,0.9,0.9,1.3c0.7,0.7,1.5,1.3,2.3,1.6
		c0.8,0.3,1.7,0.5,2.6,0.5c0.7,0,1.4-0.1,1.9-0.3c0.6-0.2,1-0.5,1.5-0.8c0.4-0.4,0.8-0.8,1.1-1.2c0.3-0.4,0.6-0.9,0.8-1.4
		c0.3,1.1,0.8,2.1,1.5,2.7c0.7,0.7,1.7,1,3.1,1c1.1,0,1.9-0.3,2.4-0.9c0.4-0.6,0.8-1.7,1-3.2C236.6,56.9,236.3,57,236,57z M186,53.4
		c0,0.6-0.1,1.1-0.2,1.6c-0.2,0.4-0.4,0.8-0.6,1.1c-0.3,0.3-0.5,0.5-0.9,0.7c-0.3,0.1-0.6,0.2-0.9,0.2c-0.2,0-0.5,0-0.9-0.1
		c-0.4-0.1-0.7-0.3-1-0.7c-0.3-0.4-0.6-0.9-0.8-1.8c-0.2-0.8-0.3-1.9-0.3-3.4c0-0.9,0.1-1.8,0.2-2.8c0.1-1,0.3-1.9,0.6-2.7
		c0.3-0.8,0.7-1.5,1.1-2.1c0.5-0.6,1-0.8,1.7-0.8c0.3,0,0.6,0.1,0.9,0.2c0.2,0.1,0.4,0.3,0.6,0.5c0.2,0.2,0.3,0.4,0.4,0.5
		c0.1,0.2,0.1,0.3,0.2,0.4V53.4z M228,53.4c0,0.6-0.1,1.1-0.2,1.6c-0.2,0.4-0.4,0.8-0.6,1.1c-0.3,0.3-0.5,0.5-0.9,0.7
		c-0.3,0.1-0.6,0.2-0.9,0.2c-0.2,0-0.5,0-0.9-0.1c-0.4-0.1-0.7-0.3-1-0.7c-0.3-0.4-0.6-0.9-0.8-1.8c-0.2-0.8-0.3-1.9-0.3-3.4
		c0-0.9,0.1-1.8,0.2-2.8c0.1-1,0.3-1.9,0.6-2.7c0.3-0.8,0.7-1.5,1.1-2.1c0.5-0.6,1-0.8,1.7-0.8c0.3,0,0.6,0.1,0.8,0.2
		c0.2,0.1,0.4,0.3,0.6,0.4c0.2,0.2,0.3,0.3,0.4,0.5c0.1,0.2,0.1,0.3,0.2,0.4V53.4z M259.1,34c-0.6,0.4-1.1,1.1-1.5,2.1
		c-0.4,1-0.8,2.2-1,3.5c-0.3,1.3-0.5,2.7-0.6,4.2c-0.1,1.5-0.2,2.9-0.2,4.2c0,2,0.1,3.5,0.4,4.8c0.3,1.2,0.6,2.2,1.1,2.9
		c0.4,0.7,0.9,1.1,1.3,1.4c0.5,0.2,0.9,0.3,1.3,0.3c0.8,0,1.5-0.4,2.1-1.1c0.6-0.7,1.1-1.7,1.5-3c0.4-1.2,0.7-2.7,0.9-4.3
		c0.2-1.6,0.3-3.3,0.3-5c0-2.5-0.2-4.5-0.6-6c-0.4-1.6-0.9-2.8-1.6-3.6c-0.7-0.9-1.5-1.4-2.4-1.8c-0.9-0.3-1.9-0.4-2.9-0.4
		c-1.3,0-2.5,0.2-3.7,0.6c-1.2,0.4-2.2,1-3.1,1.7c-0.9,0.8-1.6,1.7-2.1,2.8c-0.5,1.1-0.8,2.4-0.8,3.8c0,1,0.1,1.8,0.3,2.3
		c0.2,0.5,0.5,1,0.8,1.4c-1.5,0-2.8-0.3-3.6-1c-0.9-0.7-1.3-1.8-1.3-3.3c0-1.4,0.4-2.7,1.1-3.9c0.7-1.2,1.8-2.3,3-3.2
		c1.3-0.9,2.8-1.7,4.5-2.2c1.7-0.5,3.6-0.8,5.5-0.8c2.4,0,4.3,0.4,5.9,1.2c1.6,0.8,2.9,1.9,3.8,3.2c0.9,1.4,1.6,2.9,2,4.7
		c0.4,1.8,0.6,3.7,0.6,5.7c0,1.2-0.1,2.4-0.2,3.7c-0.1,1.3-0.4,2.5-0.7,3.6c-0.3,1.2-0.8,2.3-1.3,3.4c-0.5,1.1-1.2,2-2,2.8
		c-0.8,0.8-1.8,1.4-2.9,1.9c-1.1,0.5-2.4,0.7-3.8,0.7c-1.3,0-2.5-0.2-3.7-0.7c-1.2-0.4-2.2-1.2-3.1-2.2c-0.9-1-1.6-2.3-2.2-4
		c-0.5-1.6-0.8-3.7-0.8-6.1c0-1.5,0.1-3,0.3-4.7c0.2-1.7,0.6-3.2,1.2-4.7c0.6-1.4,1.3-2.6,2.3-3.6c0.9-0.9,2.1-1.4,3.5-1.4
		c0.3,0,0.6,0,1,0.1C258.4,33.8,258.8,33.9,259.1,34z M279.4,40.4v2.5c0.6-0.7,1.3-1.3,2-1.9c0.7-0.6,1.5-0.8,2.4-0.8
		c0.5,0,1,0.1,1.4,0.3c0.4,0.2,0.8,0.5,1.1,0.9c0.3,0.4,0.6,0.7,0.7,1.2c0.2,0.4,0.3,0.9,0.3,1.3c0,0.6-0.2,1.1-0.5,1.6
		c-0.4,0.5-1,0.8-1.8,0.8c-0.6,0-1.1-0.1-1.3-0.4c-0.2-0.3-0.4-0.6-0.6-0.9c-0.1-0.3-0.3-0.6-0.4-0.9c-0.1-0.3-0.4-0.4-0.8-0.4
		c-0.4,0-0.8,0.2-1.2,0.5c-0.4,0.3-0.8,0.7-1.2,1.2v15.5h-5.9V40.4H279.4z M378,40.4v13.1c-0.1,1-0.3,1.9-0.8,2.6
		c-0.4,0.7-1,1-1.8,1c-0.5,0-1-0.2-1.2-0.6c-0.3-0.4-0.4-1.1-0.4-2.2V40.4h-5.9v14.3c0,0.1,0,0.2,0,0.3c-0.1,0.4-0.3,0.7-0.6,1
		c-0.5,0.7-1.2,1-2,1c-0.8,0-1.3-0.2-1.7-0.5c-0.3-0.4-0.5-1.1-0.5-2.3V40.4h-5.9v2c-0.2-0.5-0.4-0.9-0.7-1.2
		c-0.3-0.3-0.6-0.5-1-0.7c-0.4-0.1-0.7-0.2-1.1-0.3c-0.4,0-0.7-0.1-1.1-0.1c-1.4,0-2.6,0.4-3.6,1.1c-1,0.7-1.8,1.6-2.4,2.8
		c-0.6,1.1-1.1,2.3-1.3,3.7c-0.3,1.3-0.4,2.6-0.4,3.9c0,1.5,0.2,2.8,0.5,4c-0.1,0.2-0.2,0.4-0.3,0.5c-0.5,0.7-1.2,1-2,1
		c-0.8,0-1.3-0.2-1.7-0.5c-0.3-0.4-0.5-1.1-0.5-2.3v-22L336,33v9.3c-0.2-0.5-0.4-0.9-0.7-1.2c-0.3-0.3-0.6-0.5-1-0.7
		c-0.4-0.1-0.7-0.2-1.1-0.3c-0.4,0-0.7-0.1-1.1-0.1c-1.4,0-2.6,0.4-3.6,1.1c-1,0.7-1.8,1.6-2.4,2.8c-0.6,1.1-1.1,2.3-1.3,3.7
		c-0.3,1.3-0.4,2.6-0.4,3.9c0,1.3,0.1,2.4,0.3,3.4c-0.1,0.4-0.3,0.8-0.5,1.1c-0.4,0.7-1,1-1.9,1c-0.8,0-1.4-0.3-1.6-0.9
		c-0.2-0.6-0.4-1.5-0.4-2.6c0-0.4,0-0.8,0-1.3c0-0.5,0-1,0.1-1.6c0-0.5,0-1.1,0.1-1.6c0-0.5,0-1,0-1.3c0-1.4-0.2-2.6-0.5-3.6
		c-0.3-1-0.7-1.7-1.3-2.3c-0.5-0.6-1.1-1-1.8-1.2c-0.7-0.2-1.4-0.4-2.2-0.4c-0.7,0-1.4,0.1-2.2,0.4c-0.8,0.3-1.5,0.9-2.1,1.9l0-2.1
		h-5.9v13.1c-0.4,0.6-0.8,1.1-1.2,1.6c-0.4,0.5-0.9,0.9-1.3,1.3c-0.5,0.4-1,0.7-1.7,0.9c-0.6,0.2-1.3,0.3-2.2,0.3
		c-1.5,0-2.5-0.4-3.1-1.2c-0.6-0.8-0.9-2.1-0.9-3.9c1-0.1,2-0.2,3-0.6c1-0.3,1.8-0.8,2.6-1.5c0.7-0.6,1.3-1.4,1.8-2.3
		c0.4-0.9,0.7-2,0.7-3.2c0-0.2,0-0.6-0.1-1.1c-0.1-0.5-0.3-1-0.6-1.6c-0.3-0.5-0.9-1-1.6-1.4c-0.7-0.4-1.7-0.6-3-0.6
		c-1.7,0-3.1,0.4-4.2,1.1c-1.1,0.8-2,1.7-2.6,2.9c-0.7,1.1-1.1,2.4-1.4,3.7c-0.3,1.3-0.4,2.6-0.4,3.8c0,1.7,0.2,3.1,0.6,4.3
		c0.4,1.2,1,2.1,1.7,2.9c0.7,0.7,1.6,1.3,2.5,1.6c1,0.4,2.1,0.5,3.2,0.5c1.4,0,2.6-0.2,3.6-0.7c1-0.4,1.9-1,2.7-1.7
		c0.8-0.7,1.4-1.5,1.9-2.4v4.5h5.9V47.7c0-0.5,0.1-0.9,0.2-1.4c0.1-0.5,0.3-0.8,0.4-1.2c0.2-0.4,0.4-0.6,0.7-0.9
		c0.3-0.2,0.6-0.3,1-0.3c0.7,0,1.2,0.3,1.6,1c0.4,0.7,0.5,1.9,0.5,3.5c0,0.3,0,0.6,0,1.1c0,0.4,0,0.9,0,1.4c0,0.5,0,1,0,1.4
		c0,0.4,0,0.8,0,1c0,2.3,0.5,4.2,1.4,5.5c0.9,1.4,2.5,2.1,4.6,2.1c0.6,0,1.2-0.1,1.8-0.3c0.6-0.2,1.2-0.5,1.8-1.1
		c0.5-0.5,0.9-1.2,1.4-2c0.3,0.5,0.6,0.9,0.9,1.3c0.7,0.7,1.5,1.3,2.3,1.6c0.8,0.3,1.7,0.5,2.6,0.5c0.7,0,1.4-0.1,1.9-0.3
		c0.6-0.2,1-0.5,1.5-0.9c0.4-0.4,0.8-0.8,1.1-1.2c0.3-0.4,0.6-0.9,0.8-1.4c0.3,1.2,0.8,2.1,1.6,2.8c0.7,0.7,1.8,1,3.3,1
		c0.5,0,1.2-0.1,1.9-0.2c0.7-0.2,1.4-0.5,2.1-1c0.6-0.5,1.1-1.1,1.6-2c0.3,0.4,0.5,0.8,0.9,1.2c0.7,0.7,1.5,1.3,2.3,1.6
		c0.8,0.3,1.7,0.5,2.6,0.5c0.7,0,1.4-0.1,1.9-0.3c0.6-0.2,1-0.5,1.5-0.9c0.4-0.4,0.8-0.8,1.1-1.2c0.3-0.4,0.6-0.9,0.8-1.4
		c0.3,1.2,0.8,2.1,1.6,2.8c0.7,0.7,1.8,1,3.3,1c0.5,0,1.2-0.1,1.9-0.2c0.7-0.2,1.4-0.5,2.1-1c0.5-0.4,1-1,1.5-1.7
		c0.2,0.5,0.4,0.9,0.7,1.3c0.9,1.1,2.2,1.7,4.2,1.7c0.4,0,0.7,0,1.1-0.1c0.4-0.1,0.8-0.2,1.2-0.3c0.4-0.2,0.8-0.4,1.2-0.7
		c0.4-0.3,0.8-0.7,1.1-1.2v2.2c-0.7,0.2-1.3,0.5-2,0.8c-0.6,0.3-1.2,0.7-1.7,1.1c-0.5,0.4-0.9,0.9-1.2,1.5c-0.3,0.6-0.5,1.2-0.5,2
		c0,0.7,0.1,1.3,0.4,1.9c0.3,0.6,0.7,1,1.2,1.4c0.5,0.4,1.1,0.7,1.8,0.9c0.7,0.2,1.4,0.3,2.2,0.3c0.6,0,1.3-0.1,1.9-0.3
		c0.7-0.2,1.3-0.5,1.8-1c0.6-0.5,1-1.2,1.4-2.1c0.4-0.9,0.5-2.1,0.5-3.5V40.4H378z M294.5,47.4c0.2-1,0.4-1.9,0.7-2.6
		c0.3-0.7,0.6-1.3,1-1.8c0.4-0.4,0.8-0.7,1.3-0.7c0.4,0,0.7,0.2,1.1,0.6c0.3,0.4,0.5,1.1,0.5,2c0,0.8-0.1,1.5-0.4,2.1
		c-0.2,0.6-0.6,1.2-1,1.7c-0.4,0.5-1,0.9-1.5,1.2c-0.6,0.3-1.2,0.5-1.9,0.5C294.2,49.5,294.3,48.4,294.5,47.4z M336,53.4
		c0,0.6-0.1,1.1-0.2,1.6c-0.2,0.4-0.4,0.8-0.6,1.1c-0.3,0.3-0.5,0.5-0.9,0.7c-0.3,0.1-0.6,0.2-0.9,0.2c-0.2,0-0.5,0-0.9-0.1
		c-0.4-0.1-0.7-0.3-1-0.6c-0.3-0.4-0.6-1-0.8-1.8c-0.2-0.8-0.3-1.9-0.3-3.4c0-0.9,0.1-1.8,0.2-2.8c0.1-1,0.3-1.9,0.6-2.7
		c0.3-0.8,0.7-1.5,1.1-2.1c0.5-0.6,1-0.8,1.7-0.8c0.3,0,0.6,0.1,0.9,0.2c0.2,0.1,0.4,0.3,0.6,0.4c0.2,0.2,0.3,0.4,0.4,0.5
		c0.1,0.2,0.1,0.3,0.2,0.4V53.4z M357.4,53.4c0,0.6-0.1,1.1-0.2,1.6c-0.2,0.4-0.4,0.8-0.6,1.1c-0.3,0.3-0.5,0.5-0.9,0.7
		c-0.3,0.1-0.6,0.2-0.9,0.2c-0.2,0-0.5,0-0.9-0.1c-0.4-0.1-0.7-0.3-1-0.6c-0.3-0.4-0.6-1-0.8-1.8c-0.2-0.8-0.3-1.9-0.3-3.4
		c0-0.9,0.1-1.8,0.2-2.8c0.1-1,0.3-1.9,0.6-2.7c0.3-0.8,0.7-1.5,1.1-2.1c0.5-0.6,1-0.8,1.7-0.8c0.3,0,0.6,0.1,0.9,0.2
		c0.2,0.1,0.5,0.3,0.6,0.4c0.2,0.2,0.3,0.4,0.4,0.5c0.1,0.2,0.1,0.3,0.2,0.4V53.4z M378,64.1c0,1.2-0.2,2.1-0.4,2.7
		c-0.3,0.6-0.7,0.9-1.2,0.9c-0.4,0-0.8-0.2-1.1-0.5c-0.4-0.3-0.5-0.8-0.5-1.3c0-0.7,0.3-1.2,1-1.7c0.6-0.5,1.4-0.9,2.3-1.3V64.1z"/>
</g>
<g id="contorno">
	<path class="st16" d="M128.3,30.2v30.5h-5.6l-9.2-20.3v20.3h-3.9V33.1c-1.2,0.6-2.2,1.4-2.9,2.5c-0.7,1.1-1,2.4-1,4.1
		c0,0.9,0.1,1.6,0.2,2.1c0.1,0.6,0.2,1,0.4,1.4c0.1,0.4,0.3,0.6,0.5,0.9c0.2,0.2,0.3,0.4,0.4,0.6c-1.8,0-3.1-0.4-4-1.2
		c-0.9-0.8-1.3-2.2-1.3-4.2c0-1.1,0.2-2.2,0.7-3.3c0.4-1.1,1.1-2.1,1.9-2.9c0.9-0.9,1.9-1.6,3.2-2.1c1.3-0.5,2.8-0.8,4.6-0.8
		c0.3,0,0.7,0,1.3,0.1c0.5,0.1,1.1,0.2,1.7,0.5l9.5,21.6V30.2H128.3z M134.8,38.1c0.9,0,1.7-0.3,2.3-0.9c0.6-0.6,1-1.4,1-2.3
		c0-0.9-0.3-1.7-1-2.3c-0.6-0.6-1.4-1-2.3-1c-0.9,0-1.7,0.3-2.3,1c-0.6,0.6-0.9,1.4-0.9,2.3c0,0.9,0.3,1.7,0.9,2.3
		C133.2,37.8,133.9,38.1,134.8,38.1z M156.4,42.5c-0.2-0.4-0.4-0.8-0.7-1.2c-0.3-0.4-0.7-0.6-1.1-0.9c-0.4-0.2-0.9-0.3-1.4-0.3
		c-0.9,0-1.7,0.3-2.4,0.8c-0.7,0.6-1.4,1.2-2,1.9v-2.5h-5.9v13.1c-0.1,1-0.4,1.9-0.9,2.6c-0.5,0.7-1.2,1-2,1c-0.8,0-1.3-0.2-1.6-0.6
		c-0.3-0.4-0.5-1.1-0.5-2.3V40.3h-5.9v14.3c0,1.9,0.4,3.4,1.3,4.6c0.8,1.1,2.3,1.7,4.4,1.7c0.5,0,1.2-0.1,1.9-0.2
		c0.7-0.2,1.4-0.5,2.1-1c0.5-0.4,0.9-0.8,1.3-1.4v2.4h5.9V45.2c0.4-0.5,0.8-0.9,1.2-1.2c0.4-0.3,0.8-0.5,1.2-0.5
		c0.4,0,0.6,0.1,0.8,0.4c0.1,0.3,0.3,0.6,0.4,0.9c0.1,0.3,0.3,0.6,0.6,0.9c0.2,0.3,0.7,0.4,1.3,0.4c0.8,0,1.4-0.2,1.8-0.7
		c0.4-0.5,0.5-1.1,0.5-1.7C156.7,43.3,156.6,42.9,156.4,42.5z M168.9,39.5c1.4,0,2.4,0.7,3,2c0.6,1.4,0.9,3.2,0.9,5.6
		c0,1.5-0.1,3.1-0.4,4.8c-0.3,1.6-0.7,3.1-1.4,4.4c-0.7,1.3-1.5,2.4-2.6,3.3c-1.1,0.9-2.4,1.3-4,1.3c-2,0-3.5-0.6-4.6-1.8
		c-1.1-1.2-1.6-2.9-1.6-4.9V40.3h5.9v13.8c0,1,0.1,1.7,0.4,2.1c0.3,0.5,0.7,0.7,1.3,0.7c0.8,0,1.5-0.3,2-0.9c0.6-0.6,1-1.4,1.4-2.4
		c0.4-1,0.6-2.1,0.8-3.3c0.2-1.2,0.3-2.4,0.3-3.5c0-1.3-0.1-2.4-0.3-3.5c-0.1,0.1-0.2,0.2-0.5,0.3c-0.3,0.1-0.5,0.1-0.7,0.1
		c-0.3,0-0.6-0.1-0.8-0.2c-0.2-0.2-0.4-0.4-0.6-0.6c-0.2-0.3-0.3-0.5-0.4-0.8c-0.1-0.3-0.1-0.6-0.1-0.9c0-0.5,0.2-0.9,0.5-1.2
		C167.7,39.7,168.2,39.5,168.9,39.5z M236,57c-0.8,0-1.3-0.2-1.6-0.6c-0.3-0.4-0.5-1.1-0.5-2.3V40.3H228v2c-0.2-0.5-0.4-0.9-0.7-1.2
		c-0.3-0.3-0.6-0.5-1-0.7c-0.4-0.1-0.7-0.2-1.1-0.3c-0.4,0-0.7-0.1-1.1-0.1c-1.4,0-2.6,0.4-3.6,1.1c-1,0.7-1.8,1.6-2.4,2.7
		c-0.6,1.1-1.1,2.3-1.3,3.7c-0.3,1.3-0.4,2.6-0.4,3.9c0,1.3,0.1,2.4,0.3,3.4c-0.1,0.4-0.3,0.8-0.5,1.1c-0.4,0.7-1,1-1.9,1
		c-0.8,0-1.4-0.3-1.6-0.9c-0.2-0.6-0.4-1.5-0.4-2.6c0-0.4,0-0.8,0-1.3c0-0.5,0-1,0.1-1.6c0-0.5,0-1.1,0.1-1.6c0-0.5,0-1,0-1.3
		c0-1.4-0.2-2.6-0.5-3.6c-0.3-1-0.7-1.7-1.3-2.3c-0.5-0.6-1.1-1-1.8-1.2c-0.7-0.2-1.4-0.4-2.2-0.4c-0.7,0-1.4,0.1-2.2,0.4
		c-0.8,0.3-1.5,0.9-2.1,1.9l0-2.1h-5.9V55c-0.1,0.4-0.3,0.7-0.6,1c-0.5,0.7-1.2,1-2,1c-0.8,0-1.3-0.2-1.6-0.6
		c-0.3-0.4-0.5-1.1-0.5-2.3V40.3H186v2c-0.2-0.5-0.4-0.9-0.7-1.2c-0.3-0.3-0.6-0.5-1-0.7c-0.4-0.1-0.7-0.2-1.1-0.3
		c-0.4,0-0.7-0.1-1.1-0.1c-1.4,0-2.6,0.4-3.6,1.1c-1,0.7-1.8,1.6-2.4,2.7c-0.6,1.1-1.1,2.3-1.3,3.7c-0.3,1.3-0.4,2.6-0.4,3.9
		c0,1.8,0.2,3.3,0.6,4.5c0.4,1.2,1,2.2,1.7,2.9c0.7,0.7,1.5,1.3,2.3,1.6c0.8,0.3,1.7,0.5,2.6,0.5c0.7,0,1.4-0.1,1.9-0.3
		c0.6-0.2,1-0.5,1.5-0.8c0.4-0.4,0.8-0.8,1.1-1.2c0.3-0.4,0.6-0.9,0.8-1.4c0.3,1.2,0.8,2.1,1.6,2.8c0.7,0.7,1.8,1,3.3,1
		c0.5,0,1.2-0.1,1.9-0.2c0.7-0.2,1.4-0.5,2.1-1c0.3-0.2,0.6-0.5,0.9-0.9v1.9h5.9V47.6c0-0.5,0.1-0.9,0.2-1.4
		c0.1-0.4,0.3-0.8,0.4-1.2c0.2-0.4,0.4-0.6,0.7-0.9c0.3-0.2,0.6-0.3,1-0.3c0.7,0,1.2,0.3,1.6,1c0.4,0.7,0.5,1.9,0.5,3.5
		c0,0.3,0,0.6,0,1.1c0,0.4,0,0.9,0,1.4c0,0.5,0,1,0,1.4c0,0.4,0,0.8,0,1c0,2.3,0.5,4.2,1.4,5.5c0.9,1.4,2.5,2.1,4.6,2.1
		c0.6,0,1.2-0.1,1.8-0.3c0.6-0.2,1.2-0.5,1.7-1.1c0.5-0.5,0.9-1.2,1.4-2c0.3,0.5,0.6,0.9,0.9,1.3c0.7,0.7,1.5,1.3,2.3,1.6
		c0.8,0.3,1.7,0.5,2.6,0.5c0.7,0,1.4-0.1,1.9-0.3c0.6-0.2,1-0.5,1.5-0.8c0.4-0.4,0.8-0.8,1.1-1.2c0.3-0.4,0.6-0.9,0.8-1.4
		c0.3,1.1,0.8,2.1,1.5,2.7c0.7,0.7,1.7,1,3.1,1c1.1,0,1.9-0.3,2.4-0.9c0.4-0.6,0.8-1.7,1-3.2C236.6,56.9,236.3,57,236,57z M186,53.4
		c0,0.6-0.1,1.1-0.2,1.6c-0.2,0.4-0.4,0.8-0.6,1.1c-0.3,0.3-0.5,0.5-0.9,0.7c-0.3,0.1-0.6,0.2-0.9,0.2c-0.2,0-0.5,0-0.9-0.1
		c-0.4-0.1-0.7-0.3-1-0.7c-0.3-0.4-0.6-0.9-0.8-1.8c-0.2-0.8-0.3-1.9-0.3-3.4c0-0.9,0.1-1.8,0.2-2.8c0.1-1,0.3-1.9,0.6-2.7
		c0.3-0.8,0.7-1.5,1.1-2.1c0.5-0.6,1-0.8,1.7-0.8c0.3,0,0.6,0.1,0.9,0.2c0.2,0.1,0.4,0.3,0.6,0.5c0.2,0.2,0.3,0.4,0.4,0.5
		c0.1,0.2,0.1,0.3,0.2,0.4V53.4z M228,53.4c0,0.6-0.1,1.1-0.2,1.6c-0.2,0.4-0.4,0.8-0.6,1.1c-0.3,0.3-0.5,0.5-0.9,0.7
		c-0.3,0.1-0.6,0.2-0.9,0.2c-0.2,0-0.5,0-0.9-0.1c-0.4-0.1-0.7-0.3-1-0.7c-0.3-0.4-0.6-0.9-0.8-1.8c-0.2-0.8-0.3-1.9-0.3-3.4
		c0-0.9,0.1-1.8,0.2-2.8c0.1-1,0.3-1.9,0.6-2.7c0.3-0.8,0.7-1.5,1.1-2.1c0.5-0.6,1-0.8,1.7-0.8c0.3,0,0.6,0.1,0.8,0.2
		c0.2,0.1,0.4,0.3,0.6,0.4c0.2,0.2,0.3,0.3,0.4,0.5c0.1,0.2,0.1,0.3,0.2,0.4V53.4z M259.1,34c-0.6,0.4-1.1,1.1-1.5,2.1
		c-0.4,1-0.8,2.2-1,3.5c-0.3,1.3-0.5,2.7-0.6,4.2c-0.1,1.5-0.2,2.9-0.2,4.2c0,2,0.1,3.5,0.4,4.8c0.3,1.2,0.6,2.2,1.1,2.9
		c0.4,0.7,0.9,1.1,1.3,1.4c0.5,0.2,0.9,0.3,1.3,0.3c0.8,0,1.5-0.4,2.1-1.1c0.6-0.7,1.1-1.7,1.5-3c0.4-1.2,0.7-2.7,0.9-4.3
		c0.2-1.6,0.3-3.3,0.3-5c0-2.5-0.2-4.5-0.6-6c-0.4-1.6-0.9-2.8-1.6-3.6c-0.7-0.9-1.5-1.4-2.4-1.8c-0.9-0.3-1.9-0.4-2.9-0.4
		c-1.3,0-2.5,0.2-3.7,0.6c-1.2,0.4-2.2,1-3.1,1.7c-0.9,0.8-1.6,1.7-2.1,2.8c-0.5,1.1-0.8,2.4-0.8,3.8c0,1,0.1,1.8,0.3,2.3
		c0.2,0.5,0.5,1,0.8,1.4c-1.5,0-2.8-0.3-3.6-1c-0.9-0.7-1.3-1.8-1.3-3.3c0-1.4,0.4-2.7,1.1-3.9c0.7-1.2,1.8-2.3,3-3.2
		c1.3-0.9,2.8-1.7,4.5-2.2c1.7-0.5,3.6-0.8,5.5-0.8c2.4,0,4.3,0.4,5.9,1.2c1.6,0.8,2.9,1.9,3.8,3.2c0.9,1.4,1.6,2.9,2,4.7
		c0.4,1.8,0.6,3.7,0.6,5.7c0,1.2-0.1,2.4-0.2,3.7c-0.1,1.3-0.4,2.5-0.7,3.6c-0.3,1.2-0.8,2.3-1.3,3.4c-0.5,1.1-1.2,2-2,2.8
		c-0.8,0.8-1.8,1.4-2.9,1.9c-1.1,0.5-2.4,0.7-3.8,0.7c-1.3,0-2.5-0.2-3.7-0.7c-1.2-0.4-2.2-1.2-3.1-2.2c-0.9-1-1.6-2.3-2.2-4
		c-0.5-1.6-0.8-3.7-0.8-6.1c0-1.5,0.1-3,0.3-4.7c0.2-1.7,0.6-3.2,1.2-4.7c0.6-1.4,1.3-2.6,2.3-3.6c0.9-0.9,2.1-1.4,3.5-1.4
		c0.3,0,0.6,0,1,0.1C258.4,33.8,258.8,33.9,259.1,34z M279.4,40.4v2.5c0.6-0.7,1.3-1.3,2-1.9c0.7-0.6,1.5-0.8,2.4-0.8
		c0.5,0,1,0.1,1.4,0.3c0.4,0.2,0.8,0.5,1.1,0.9c0.3,0.4,0.6,0.7,0.7,1.2c0.2,0.4,0.3,0.9,0.3,1.3c0,0.6-0.2,1.1-0.5,1.6
		c-0.4,0.5-1,0.8-1.8,0.8c-0.6,0-1.1-0.1-1.3-0.4c-0.2-0.3-0.4-0.6-0.6-0.9c-0.1-0.3-0.3-0.6-0.4-0.9c-0.1-0.3-0.4-0.4-0.8-0.4
		c-0.4,0-0.8,0.2-1.2,0.5c-0.4,0.3-0.8,0.7-1.2,1.2v15.5h-5.9V40.4H279.4z M378,40.4v13.1c-0.1,1-0.3,1.9-0.8,2.6
		c-0.4,0.7-1,1-1.8,1c-0.5,0-1-0.2-1.2-0.6c-0.3-0.4-0.4-1.1-0.4-2.2V40.4h-5.9v14.3c0,0.1,0,0.2,0,0.3c-0.1,0.4-0.3,0.7-0.6,1
		c-0.5,0.7-1.2,1-2,1c-0.8,0-1.3-0.2-1.7-0.5c-0.3-0.4-0.5-1.1-0.5-2.3V40.4h-5.9v2c-0.2-0.5-0.4-0.9-0.7-1.2
		c-0.3-0.3-0.6-0.5-1-0.7c-0.4-0.1-0.7-0.2-1.1-0.3c-0.4,0-0.7-0.1-1.1-0.1c-1.4,0-2.6,0.4-3.6,1.1c-1,0.7-1.8,1.6-2.4,2.8
		c-0.6,1.1-1.1,2.3-1.3,3.7c-0.3,1.3-0.4,2.6-0.4,3.9c0,1.5,0.2,2.8,0.5,4c-0.1,0.2-0.2,0.4-0.3,0.5c-0.5,0.7-1.2,1-2,1
		c-0.8,0-1.3-0.2-1.7-0.5c-0.3-0.4-0.5-1.1-0.5-2.3v-22L336,33v9.3c-0.2-0.5-0.4-0.9-0.7-1.2c-0.3-0.3-0.6-0.5-1-0.7
		c-0.4-0.1-0.7-0.2-1.1-0.3c-0.4,0-0.7-0.1-1.1-0.1c-1.4,0-2.6,0.4-3.6,1.1c-1,0.7-1.8,1.6-2.4,2.8c-0.6,1.1-1.1,2.3-1.3,3.7
		c-0.3,1.3-0.4,2.6-0.4,3.9c0,1.3,0.1,2.4,0.3,3.4c-0.1,0.4-0.3,0.8-0.5,1.1c-0.4,0.7-1,1-1.9,1c-0.8,0-1.4-0.3-1.6-0.9
		c-0.2-0.6-0.4-1.5-0.4-2.6c0-0.4,0-0.8,0-1.3c0-0.5,0-1,0.1-1.6c0-0.5,0-1.1,0.1-1.6c0-0.5,0-1,0-1.3c0-1.4-0.2-2.6-0.5-3.6
		c-0.3-1-0.7-1.7-1.3-2.3c-0.5-0.6-1.1-1-1.8-1.2c-0.7-0.2-1.4-0.4-2.2-0.4c-0.7,0-1.4,0.1-2.2,0.4c-0.8,0.3-1.5,0.9-2.1,1.9l0-2.1
		h-5.9v13.1c-0.4,0.6-0.8,1.1-1.2,1.6c-0.4,0.5-0.9,0.9-1.3,1.3c-0.5,0.4-1,0.7-1.7,0.9c-0.6,0.2-1.3,0.3-2.2,0.3
		c-1.5,0-2.5-0.4-3.1-1.2c-0.6-0.8-0.9-2.1-0.9-3.9c1-0.1,2-0.2,3-0.6c1-0.3,1.8-0.8,2.6-1.5c0.7-0.6,1.3-1.4,1.8-2.3
		c0.4-0.9,0.7-2,0.7-3.2c0-0.2,0-0.6-0.1-1.1c-0.1-0.5-0.3-1-0.6-1.6c-0.3-0.5-0.9-1-1.6-1.4c-0.7-0.4-1.7-0.6-3-0.6
		c-1.7,0-3.1,0.4-4.2,1.1c-1.1,0.8-2,1.7-2.6,2.9c-0.7,1.1-1.1,2.4-1.4,3.7c-0.3,1.3-0.4,2.6-0.4,3.8c0,1.7,0.2,3.1,0.6,4.3
		c0.4,1.2,1,2.1,1.7,2.9c0.7,0.7,1.6,1.3,2.5,1.6c1,0.4,2.1,0.5,3.2,0.5c1.4,0,2.6-0.2,3.6-0.7c1-0.4,1.9-1,2.7-1.7
		c0.8-0.7,1.4-1.5,1.9-2.4v4.5h5.9V47.7c0-0.5,0.1-0.9,0.2-1.4c0.1-0.5,0.3-0.8,0.4-1.2c0.2-0.4,0.4-0.6,0.7-0.9
		c0.3-0.2,0.6-0.3,1-0.3c0.7,0,1.2,0.3,1.6,1c0.4,0.7,0.5,1.9,0.5,3.5c0,0.3,0,0.6,0,1.1c0,0.4,0,0.9,0,1.4c0,0.5,0,1,0,1.4
		c0,0.4,0,0.8,0,1c0,2.3,0.5,4.2,1.4,5.5c0.9,1.4,2.5,2.1,4.6,2.1c0.6,0,1.2-0.1,1.8-0.3c0.6-0.2,1.2-0.5,1.8-1.1
		c0.5-0.5,0.9-1.2,1.4-2c0.3,0.5,0.6,0.9,0.9,1.3c0.7,0.7,1.5,1.3,2.3,1.6c0.8,0.3,1.7,0.5,2.6,0.5c0.7,0,1.4-0.1,1.9-0.3
		c0.6-0.2,1-0.5,1.5-0.9c0.4-0.4,0.8-0.8,1.1-1.2c0.3-0.4,0.6-0.9,0.8-1.4c0.3,1.2,0.8,2.1,1.6,2.8c0.7,0.7,1.8,1,3.3,1
		c0.5,0,1.2-0.1,1.9-0.2c0.7-0.2,1.4-0.5,2.1-1c0.6-0.5,1.1-1.1,1.6-2c0.3,0.4,0.5,0.8,0.9,1.2c0.7,0.7,1.5,1.3,2.3,1.6
		c0.8,0.3,1.7,0.5,2.6,0.5c0.7,0,1.4-0.1,1.9-0.3c0.6-0.2,1-0.5,1.5-0.9c0.4-0.4,0.8-0.8,1.1-1.2c0.3-0.4,0.6-0.9,0.8-1.4
		c0.3,1.2,0.8,2.1,1.6,2.8c0.7,0.7,1.8,1,3.3,1c0.5,0,1.2-0.1,1.9-0.2c0.7-0.2,1.4-0.5,2.1-1c0.5-0.4,1-1,1.5-1.7
		c0.2,0.5,0.4,0.9,0.7,1.3c0.9,1.1,2.2,1.7,4.2,1.7c0.4,0,0.7,0,1.1-0.1c0.4-0.1,0.8-0.2,1.2-0.3c0.4-0.2,0.8-0.4,1.2-0.7
		c0.4-0.3,0.8-0.7,1.1-1.2v2.2c-0.7,0.2-1.3,0.5-2,0.8c-0.6,0.3-1.2,0.7-1.7,1.1c-0.5,0.4-0.9,0.9-1.2,1.5c-0.3,0.6-0.5,1.2-0.5,2
		c0,0.7,0.1,1.3,0.4,1.9c0.3,0.6,0.7,1,1.2,1.4c0.5,0.4,1.1,0.7,1.8,0.9c0.7,0.2,1.4,0.3,2.2,0.3c0.6,0,1.3-0.1,1.9-0.3
		c0.7-0.2,1.3-0.5,1.8-1c0.6-0.5,1-1.2,1.4-2.1c0.4-0.9,0.5-2.1,0.5-3.5V40.4H378z M294.5,47.4c0.2-1,0.4-1.9,0.7-2.6
		c0.3-0.7,0.6-1.3,1-1.8c0.4-0.4,0.8-0.7,1.3-0.7c0.4,0,0.7,0.2,1.1,0.6c0.3,0.4,0.5,1.1,0.5,2c0,0.8-0.1,1.5-0.4,2.1
		c-0.2,0.6-0.6,1.2-1,1.7c-0.4,0.5-1,0.9-1.5,1.2c-0.6,0.3-1.2,0.5-1.9,0.5C294.2,49.5,294.3,48.4,294.5,47.4z M336,53.4
		c0,0.6-0.1,1.1-0.2,1.6c-0.2,0.4-0.4,0.8-0.6,1.1c-0.3,0.3-0.5,0.5-0.9,0.7c-0.3,0.1-0.6,0.2-0.9,0.2c-0.2,0-0.5,0-0.9-0.1
		c-0.4-0.1-0.7-0.3-1-0.6c-0.3-0.4-0.6-1-0.8-1.8c-0.2-0.8-0.3-1.9-0.3-3.4c0-0.9,0.1-1.8,0.2-2.8c0.1-1,0.3-1.9,0.6-2.7
		c0.3-0.8,0.7-1.5,1.1-2.1c0.5-0.6,1-0.8,1.7-0.8c0.3,0,0.6,0.1,0.9,0.2c0.2,0.1,0.4,0.3,0.6,0.4c0.2,0.2,0.3,0.4,0.4,0.5
		c0.1,0.2,0.1,0.3,0.2,0.4V53.4z M357.4,53.4c0,0.6-0.1,1.1-0.2,1.6c-0.2,0.4-0.4,0.8-0.6,1.1c-0.3,0.3-0.5,0.5-0.9,0.7
		c-0.3,0.1-0.6,0.2-0.9,0.2c-0.2,0-0.5,0-0.9-0.1c-0.4-0.1-0.7-0.3-1-0.6c-0.3-0.4-0.6-1-0.8-1.8c-0.2-0.8-0.3-1.9-0.3-3.4
		c0-0.9,0.1-1.8,0.2-2.8c0.1-1,0.3-1.9,0.6-2.7c0.3-0.8,0.7-1.5,1.1-2.1c0.5-0.6,1-0.8,1.7-0.8c0.3,0,0.6,0.1,0.9,0.2
		c0.2,0.1,0.5,0.3,0.6,0.4c0.2,0.2,0.3,0.4,0.4,0.5c0.1,0.2,0.1,0.3,0.2,0.4V53.4z M378,64.1c0,1.2-0.2,2.1-0.4,2.7
		c-0.3,0.6-0.7,0.9-1.2,0.9c-0.4,0-0.8-0.2-1.1-0.5c-0.4-0.3-0.5-0.8-0.5-1.3c0-0.7,0.3-1.2,1-1.7c0.6-0.5,1.4-0.9,2.3-1.3V64.1z
		 M4.5,35.9c-0.5,0.3-0.8,0.8-1.1,1.4c-0.6,1.8-0.6,4.6,1.8,4.8c1,0.1,23.7-8.5,33.4-15.1c-4,5.2-12.3,31.1-11,43
		c0.2,2.7,1.6,3,2.1,2.6c0.5-0.4,3-4.3,3-4.3S54,38.6,63.4,33.5c3.6-2.8,18.8-9.9,24.1,3C88.7,40,89.4,58.6,74,67.5
		c-2,1.1-12.3,4.3-14.5-5.2c-1.2-2.8,2.5-12.8,14.6-13.6c1.1,0.4-0.1,2.4-5,4.3c-1.3,0.9-1.5,8,2,5.9c3-1.1,12-7.5,4.6-16.1
		c-1.2-1.4-5.3-0.7-11,2.1c-5.7,2.7-14.4,16.6-3.2,28.7c3.7,3.2,23.7,6.5,30-26.9c0.9-4.7,0.1-9.8-1.5-14.2
		c-2.2-5.9-6.4-10.4-13.2-9.7c-9.7,1-17.6,6.6-24.4,13.3c-4.8,4.8-8.9,10.2-13.1,15.5c-1.2,1.6-2.4,3.1-3.7,4.6
		c-4.1,5.1-3.9,4.7-3.9,4.7c0.4-6.7,2.6-13.2,4.9-19.4c2.4-6.4,5.4-13.1,9.6-18.5c3.2-4.2,16.3-11.7,11.9-18.2
		c-0.8-1.1-1.6-0.2-2.6,0.7c-1,0.9-1,0.9-1,0.9s-7,8-13.4,11.9c-4.5,3.4-10.1,5.8-15.2,8.3c-5.9,2.8-11.9,5.7-18.1,8
		C6.9,35,5.5,35.2,4.5,35.9z"/>
</g>
</svg>
